<?xml version="1.0" standalone="no"?>
<!DOCTYPE svg PUBLIC "-//W3C//DTD SVG 1.1//EN" "http://www.w3.org/Graphics/SVG/1.1/DTD/svg11.dtd" >
<svg xmlns="http://www.w3.org/2000/svg">
<metadata>
Created by FontPrep 20130207 at Thu Jan 26 15:25:34 2017
 By Callum Flack
Copyright 2010 Monotype Imaging Inc. All rights reserved. Designed by Nick Job.
</metadata>
<defs>
<font id="3c051edb3a375a0102d58d50ae310e12" horiz-adv-x='1024' >
  <font-face 
    font-family="CamphorW01-BoldItalic"
    font-weight="400"
    font-style="italic"
    font-stretch="normal"
    units-per-em="2048"
    panose-1="2 11 8 4 3 4 4 9 2 4"
    ascent="1505"
    descent="-543"
    x-height="1024"
    cap-height="1409"
    bbox="-326 -512 2396 1909"
    underline-thickness="126"
    underline-position="-256"
    unicode-range="U+0020-E808"
  />
<missing-glyph 
 />
    <glyph glyph-name=".notdef" 
 />
    <glyph glyph-name=".null" horiz-adv-x="0" 
 />
    <glyph glyph-name="nonmarkingreturn" horiz-adv-x="681" 
 />
    <glyph glyph-name="space" unicode=" " 
 />
    <glyph glyph-name="exclam" unicode="!" horiz-adv-x="600" 
d="M74 124q0 68 50 116.5t118 48.5t106.5 -38.5t38.5 -106.5t-48.5 -118.5t-116.5 -50.5t-108 40.5t-40 108.5zM336 1409h264l-184 -981h-262z" />
    <glyph glyph-name="quotedbl" unicode="&#x22;" horiz-adv-x="899" 
d="M309 1409h228l-101 -526h-223zM698 1409h224l-97 -526h-227z" />
    <glyph glyph-name="numbersign" unicode="#" horiz-adv-x="1153" 
d="M436 567h264l88 275h-266zM10 567h191l86 275h-164l43 225h192l107 342h233l-106 -342h266l107 342h235l-106 -342h163l-43 -225h-192l-86 -275h164l-41 -225h-193l-106 -342h-236l107 342h-264l-107 -342h-235l106 342h-164z" />
    <glyph glyph-name="dollar" unicode="$" horiz-adv-x="1153" 
d="M502 254q98 0 159.5 49t61.5 115t-36 103.5t-88 67t-202.5 104t-150.5 286.5q0 154 102.5 256t274.5 127l57 303h225l-57 -307q122 -21 239 -82l-43 -227q-168 106 -321 106q-94 0 -151.5 -45.5t-57.5 -107.5t36 -97t89 -64.5t203.5 -104t150.5 -294.5q0 -160 -105 -265
t-286 -130l-55 -303h-228l58 307q-115 17 -273 94l46 232q178 -123 352 -123z" />
    <glyph glyph-name="percent" unicode="%" horiz-adv-x="1730" 
d="M1450 1409h215l-1313 -1409h-215zM348 988q0 -66 37 -111.5t91 -45.5q95 0 157.5 82.5t62.5 206.5q0 74 -36 119t-90 45t-93 -22.5t-67.5 -61.5t-45 -92.5t-16.5 -119.5zM166 990q0 80 31.5 165.5t118.5 182t264 96.5q130 0 214.5 -82.5t84.5 -195.5
q0 -213 -118.5 -344.5t-293.5 -131.5q-132 0 -216.5 82t-84.5 228zM1104 278q0 -66 38 -109.5t91 -43.5q98 0 159.5 88t61.5 209q0 72 -38 115t-91 43t-92 -24t-67.5 -63.5t-45 -94t-16.5 -120.5zM922 280q0 80 31.5 166t119 184.5t262.5 98.5q133 0 217 -80t84 -192
q0 -214 -119 -348t-294 -134q-133 0 -217 80t-84 225z" />
    <glyph glyph-name="ampersand" unicode="&#x26;" horiz-adv-x="1320" 
d="M342 391q0 -92 60.5 -144t151.5 -52t187 43l72 376h-162q-137 0 -223 -65.5t-86 -157.5zM508 -25q-185 0 -310.5 105t-125.5 253t86 255.5t233 152.5q-78 43 -120 114t-42 159q0 175 137.5 297.5t326.5 122.5q190 0 370 -82l-41 -224q-141 86 -265 86t-193.5 -61
t-69.5 -147q0 -87 62 -138t161 -51h637l-39 -203h-244l-98 -528q-225 -111 -465 -111z" />
    <glyph glyph-name="quotesingle" unicode="'" 
d="M309 1409h228l-101 -526h-223z" />
    <glyph glyph-name="parenleft" unicode="(" horiz-adv-x="684" 
d="M117 395q0 305 118.5 581.5t350.5 496.5h303q-250 -211 -382 -483.5t-132 -577.5q0 -395 168 -731h-254q-172 344 -172 714z" />
    <glyph glyph-name="parenright" unicode=")" horiz-adv-x="684" 
d="M584 758q0 -305 -119 -581.5t-350 -495.5h-303q250 211 383 483t133 579q0 389 -170 730h252q174 -342 174 -715z" />
    <glyph glyph-name="asterisk" unicode="*" horiz-adv-x="940" 
d="M987 1083v-202h-289l90 -277l-194 -63l-90 276l-234 -172l-118 166l233 170l-233 170l118 166l234 -170l90 274l194 -63l-90 -275h289z" />
    <glyph glyph-name="plus" unicode="+" horiz-adv-x="1153" 
d="M76 690h399v400h227v-400h400v-227h-400v-400h-227v400h-399v227z" />
    <glyph glyph-name="comma" unicode="," 
d="M88 240h268l-305 -496h-233z" />
    <glyph glyph-name="hyphen" unicode="-" horiz-adv-x="641" 
d="M80 627h522l-41 -211h-522z" />
    <glyph glyph-name="period" unicode="." 
d="M31 124q0 68 48.5 116.5t116.5 48.5t108 -38.5t40 -106.5t-49 -118.5t-117 -50.5t-107.5 40.5t-39.5 108.5z" />
    <glyph glyph-name="slash" unicode="/" horiz-adv-x="768" 
d="M647 1473h277l-781 -1792h-274z" />
    <glyph glyph-name="zero" unicode="0" horiz-adv-x="1153" 
d="M336 512q0 -145 51 -228t132 -83q156 0 264 202t108 492q0 147 -52.5 230t-133.5 83t-147 -54t-115.5 -148.5t-78 -221.5t-28.5 -272zM72 470q0 222 49 394t137 299t208 199t259 72q203 0 315.5 -136.5t112.5 -357.5t-50 -394t-137 -300t-207 -199t-259 -72
q-203 0 -315.5 136.5t-112.5 358.5z" />
    <glyph glyph-name="one" unicode="1" horiz-adv-x="1153" 
d="M657 1114l-374 -162l47 248l479 209h174l-264 -1409h-270z" />
    <glyph glyph-name="two" unicode="2" horiz-adv-x="1153" 
d="M1073 1067q0 -369 -637 -842h506l-41 -225h-889l35 180q544 366 648 555t104 275t-53.5 139t-143.5 53q-176 0 -356 -125l47 254q187 103 373 103t296.5 -101t110.5 -266z" />
    <glyph glyph-name="three" unicode="3" horiz-adv-x="1153" 
d="M432 195q121 0 200 66t79 157q0 90 -66.5 142t-177.5 52h-70l39 207h74q124 0 208.5 64t84.5 151t-56.5 133.5t-144.5 46.5q-156 0 -328 -94l45 242q168 72 342 72t289 -95.5t115 -246.5q0 -202 -112.5 -280.5t-178.5 -98.5q98 -35 152.5 -114t54.5 -178
q0 -195 -152.5 -320.5t-373.5 -125.5q-220 0 -408 113l43 231q177 -124 342 -124z" />
    <glyph glyph-name="four" unicode="4" horiz-adv-x="1153" 
d="M651 553l90 481l-442 -481h352zM614 350h-610l37 191l797 868h227l-160 -856h207l-37 -203h-209l-65 -350h-254z" />
    <glyph glyph-name="five" unicode="5" horiz-adv-x="1153" 
d="M733 457q0 106 -72.5 166.5t-191.5 60.5t-254 -33l143 758h744l-43 -225h-510l-57 -310q56 6 124 6t143 -28.5t160 -110.5t85 -249q0 -226 -165.5 -371.5t-416.5 -145.5q-180 0 -352 99l45 237q158 -110 299 -110q142 0 230.5 75t88.5 181z" />
    <glyph glyph-name="six" unicode="6" horiz-adv-x="1153" 
d="M344 423q0 -91 57.5 -156.5t159.5 -65.5t181 84.5t79 187.5q0 104 -55.5 161.5t-165.5 57.5t-227 -98q-29 -80 -29 -171zM678 911q185 0 293 -115.5t108 -283.5q0 -227 -158.5 -382t-394.5 -155q-194 0 -318 127.5t-124 325.5q0 256 161 510t453 471h367
q-409 -264 -592 -553q105 55 205 55z" />
    <glyph glyph-name="seven" unicode="7" horiz-adv-x="1153" 
d="M836 1184h-613l41 225h920l-31 -168l-745 -1241h-291z" />
    <glyph glyph-name="eight" unicode="8" horiz-adv-x="1153" 
d="M459 976q0 -64 51.5 -110.5t117.5 -46.5q119 0 190 67t71 155t-51.5 136t-118.5 48t-111.5 -17.5t-78 -49.5t-52 -75t-18.5 -107zM319 382q0 -94 57.5 -146t129.5 -52q133 0 210 70.5t77 163.5q0 94 -58.5 145t-160.5 51t-178.5 -69t-76.5 -163zM211 999
q0 182 148.5 308.5t369.5 126.5q175 0 291.5 -99.5t116.5 -237.5q0 -273 -273 -382q90 -41 138.5 -116t48.5 -172q0 -194 -157.5 -323t-397.5 -129q-184 0 -309.5 103t-125.5 248t82 251.5t226 149.5q-76 39 -117 110.5t-41 161.5z" />
    <glyph glyph-name="nine" unicode="9" horiz-adv-x="1153" 
d="M883 984q0 93 -57.5 158.5t-159.5 65.5t-181 -81t-79 -188t55 -164.5t131 -57.5q145 0 260 98q31 76 31 169zM544 498q-179 0 -289 115.5t-110 283.5q0 230 159.5 383.5t393.5 153.5q193 0 318 -127t125 -326q0 -256 -161 -510t-454 -471h-366q422 279 592 553
q-112 -55 -208 -55z" />
    <glyph glyph-name="colon" unicode=":" 
d="M168 882q0 68 50 117.5t118 49.5t106.5 -39t38.5 -108t-48.5 -118t-116.5 -49t-108 39.5t-40 107.5zM31 124q0 68 48.5 116.5t116.5 48.5t108 -38.5t40 -106.5t-49 -118.5t-117 -50.5t-107.5 40.5t-39.5 108.5z" />
    <glyph glyph-name="semicolon" unicode=";" 
d="M168 882q0 68 50 117.5t118 49.5t106.5 -39t38.5 -108t-48.5 -118t-116.5 -49t-108 39.5t-40 107.5zM88 240h268l-305 -496h-233z" />
    <glyph glyph-name="less" unicode="&#x3c;" horiz-adv-x="1153" 
d="M76 483v187l1026 436v-244l-676 -284l676 -287v-244z" />
    <glyph glyph-name="equal" unicode="=" horiz-adv-x="1153" 
d="M76 905h1026v-223h-1026v223zM76 471h1026v-223h-1026v223z" />
    <glyph glyph-name="greater" unicode="&#x3e;" horiz-adv-x="1153" 
d="M1102 670v-187l-1026 -436v244l676 287l-676 284v244z" />
    <glyph glyph-name="question" unicode="?" horiz-adv-x="929" 
d="M193 124q0 68 50.5 116.5t118.5 48.5t107 -38.5t39 -106.5t-50 -118.5t-118 -50.5t-107.5 40.5t-39.5 108.5zM649 1060q0 61 -46 102.5t-122 41.5q-141 0 -305 -114l49 258q152 86 324 86t273.5 -97t101.5 -247q0 -188 -155.5 -327.5t-197 -193t-51.5 -104.5l-8 -37h-250
l12 64q30 168 171.5 287t172.5 169.5t31 111.5z" />
    <glyph glyph-name="at" unicode="@" horiz-adv-x="1996" 
d="M807 432q0 -78 42 -125t120 -47t153 72l70 373q-72 61 -134 61t-106.5 -24.5t-76 -68.5t-50 -103.5t-18.5 -137.5zM549 391q0 260 131 425t330 165q119 0 221 -76l8 56h252l-107 -580q-6 -18 -6 -45t22.5 -48.5t66.5 -21.5t89.5 34t98.5 126.5t53 273.5q0 239 -161.5 383
t-428.5 144q-172 0 -321.5 -65.5t-258 -180.5t-171 -270t-62.5 -311q0 -285 167 -444t446 -159q229 0 481 121l-43 -227q-231 -101 -436 -101q-389 -1 -616.5 212t-227.5 552q0 233 80 431t221 342.5t335.5 225.5t396.5 81q376 0 603 -196.5t227 -499.5t-156.5 -498
t-391.5 -195q-164 0 -238 98q-123 -98 -274 -98q-150 0 -240 102t-90 244z" />
    <glyph glyph-name="A" unicode="A" horiz-adv-x="1314" 
d="M494 539h385l-93 534zM721 1409h223l275 -1409h-248l-60 338h-528l-184 -338h-277z" />
    <glyph glyph-name="B" unicode="B" horiz-adv-x="1259" 
d="M700 817q111 0 181.5 63.5t70.5 148.5t-50 129t-136 44h-197l-71 -385h202zM825 1409q174 0 279.5 -88.5t105.5 -224.5t-67.5 -235t-184.5 -146q86 -33 136.5 -105t50.5 -168q0 -193 -153.5 -317.5t-379.5 -124.5h-524l264 1409h473zM614 207q114 0 189.5 66t75.5 159
q0 92 -52.5 137t-144.5 45h-221l-78 -407h231z" />
    <glyph glyph-name="C" unicode="C" horiz-adv-x="1257" 
d="M115 585q0 159 59 320.5t163.5 279.5t250 183.5t335.5 65.5t394 -121l-45 -232q-176 127 -350 127q-232 0 -382.5 -177t-150.5 -447q0 -173 101.5 -278t274.5 -105q172 0 361 110l-43 -248q-176 -88 -411 -88t-353 120t-161 225.5t-43 264.5z" />
    <glyph glyph-name="D" unicode="D" horiz-adv-x="1443" 
d="M616 219q223 0 366.5 173t143.5 446q0 164 -95 258t-263 94h-190l-181 -971h219zM813 1409q263 0 425.5 -153t162.5 -396q0 -391 -219.5 -625.5t-583.5 -234.5h-510l262 1409h463z" />
    <glyph glyph-name="E" unicode="E" horiz-adv-x="1138" 
d="M352 1409h836l-39 -219h-569l-68 -367h485l-36 -215h-490l-74 -389h584l-41 -219h-852z" />
    <glyph glyph-name="F" unicode="F" horiz-adv-x="1089" 
d="M352 1409h836l-39 -219h-571l-76 -412h487l-41 -219h-487l-107 -559h-266z" />
    <glyph glyph-name="G" unicode="G" horiz-adv-x="1402" 
d="M932 1208q-238 0 -392.5 -177t-154.5 -447q0 -170 101 -276.5t266 -106.5q106 0 217 41l61 315h-287l39 203h537l-129 -686q-246 -98 -494 -98t-414.5 162.5t-166.5 412.5q0 387 227 635t580 248q220 0 440 -136l-45 -235q-185 145 -385 145z" />
    <glyph glyph-name="H" unicode="H" horiz-adv-x="1507" 
d="M352 1409h269l-109 -584h602l111 584h268l-264 -1409h-271l115 608h-604l-115 -608h-266z" />
    <glyph glyph-name="I" unicode="I" horiz-adv-x="634" 
d="M352 1409h269l-267 -1409h-266z" />
    <glyph glyph-name="J" unicode="J" horiz-adv-x="972" 
d="M323 -25q-169 0 -333 82l43 219q121 -76 226 -76t169 54.5t80 146.5l188 1008h271l-197 -1049q-35 -180 -156.5 -282.5t-290.5 -102.5z" />
    <glyph glyph-name="K" unicode="K" horiz-adv-x="1300" 
d="M352 1409h262l-106 -575l604 575h338l-745 -702l503 -707h-305l-436 618l-117 -618h-262z" />
    <glyph glyph-name="L" unicode="L" horiz-adv-x="1036" 
d="M352 1409h269l-224 -1190h547l-41 -219h-815z" />
    <glyph glyph-name="M" unicode="M" horiz-adv-x="1689" 
d="M352 1409h219l310 -623l538 623h254l-264 -1409h-252l184 979l-421 -492h-152l-246 496l-182 -983h-252z" />
    <glyph glyph-name="N" unicode="N" horiz-adv-x="1507" 
d="M352 1409h219l486 -983l182 983h254l-264 -1409h-221l-486 983l-182 -983h-252z" />
    <glyph glyph-name="O" unicode="O" horiz-adv-x="1507" 
d="M389 554q0 -150 86 -251.5t232 -101.5q201 0 342 185t141 452q0 170 -86 270t-232 100q-98 0 -186 -49t-154.5 -135t-104.5 -203t-38 -267zM115 581q0 161 58 323.5t162.5 280.5t248.5 183.5t292 65.5q279 0 434.5 -159t155.5 -415q0 -387 -162.5 -570.5t-307 -249
t-292.5 -65.5t-253 42t-179.5 117t-115.5 180.5t-41 266.5z" />
    <glyph glyph-name="P" unicode="P" horiz-adv-x="1230" 
d="M659 719q140 0 226 78t86 185t-60.5 160.5t-169.5 53.5h-166l-90 -477h174zM811 1409q200 0 315 -105t115 -280q0 -222 -168.5 -370t-417.5 -148h-211l-94 -506h-262l264 1409h459z" />
    <glyph glyph-name="Q" unicode="Q" horiz-adv-x="1507" 
d="M389 554q0 -150 86 -251.5t232 -101.5q201 0 342 185t141 452q0 170 -86 270t-232 100q-98 0 -186 -49t-154.5 -135t-104.5 -203t-38 -267zM662 -25q-107 0 -211.5 42t-220 158.5t-115.5 373.5q0 387 162.5 570.5t306.5 249t292 65.5t253.5 -41t180 -117t115.5 -181.5
t41 -295.5t-100.5 -392.5t-275.5 -314.5l217 -301h-289l-148 211q-101 -27 -208 -27z" />
    <glyph glyph-name="R" unicode="R" horiz-adv-x="1251" 
d="M651 735q136 0 219.5 77.5t83.5 180.5q0 203 -221 203h-158l-88 -461h164zM803 1409q195 0 308.5 -101.5t113.5 -275.5q0 -249 -140.5 -348.5t-220.5 -124.5l228 -559h-277l-205 522h-161l-99 -522h-262l264 1409h451z" />
    <glyph glyph-name="S" unicode="S" horiz-adv-x="1116" 
d="M733 380q0 78 -40 121.5t-99 78t-128 67.5t-128 80t-99 113t-40 164q0 192 143 311t356 119t410 -107l-41 -227q-182 119 -354 119q-111 0 -180.5 -53.5t-69.5 -127.5t40 -114.5t99.5 -73.5t228 -114t168.5 -324q0 -194 -146 -315.5t-367 -121.5q-220 0 -439 119l43 234
q199 -137 385 -138q117 0 187.5 56t70.5 134z" />
    <glyph glyph-name="T" unicode="T" horiz-adv-x="1196" 
d="M590 1190h-412l41 219h1096l-41 -219h-416l-221 -1190h-268z" />
    <glyph glyph-name="U" unicode="U" horiz-adv-x="1507" 
d="M690 -25q-233 0 -375.5 127.5t-142.5 323.5q0 61 12 133l160 850h268l-157 -850q-4 -27 -7.5 -50.5t-3.5 -45.5q0 -117 71 -189.5t200 -72.5t225 86t123 229l168 893h268l-170 -924q-71 -361 -295.5 -435.5t-343.5 -74.5z" />
    <glyph glyph-name="V" unicode="V" horiz-adv-x="1314" 
d="M666 0h-222l-276 1409h260l178 -1047l570 1047h288z" />
    <glyph glyph-name="W" unicode="W" horiz-adv-x="2082" 
d="M1489 0h-236l-120 1073l-519 -1073h-235l-199 1409h252l119 -1073l520 1073h236l118 -1073l519 1073h278z" />
    <glyph glyph-name="X" unicode="X" horiz-adv-x="1337" 
d="M543 727l-338 682h282l240 -502l401 502h312l-590 -702l348 -707h-289l-243 526l-428 -526h-320z" />
    <glyph glyph-name="Y" unicode="Y" horiz-adv-x="1241" 
d="M489 598l-329 811h282l213 -582l428 582h322l-649 -836l-109 -573h-270z" />
    <glyph glyph-name="Z" unicode="Z" horiz-adv-x="1269" 
d="M18 180l920 1010h-692l43 219h1034l-35 -180l-917 -1010h741l-39 -219h-1087z" />
    <glyph glyph-name="bracketleft" unicode="[" horiz-adv-x="684" 
d="M354 1473h459l-39 -201h-205l-262 -1391h207l-39 -200h-457z" />
    <glyph glyph-name="backslash" unicode="\" horiz-adv-x="768" 
d="M897 -319h-274l-582 1792h276z" />
    <glyph glyph-name="bracketright" unicode="]" horiz-adv-x="684" 
d="M354 -319h-456l36 200h205l262 1391h-204l36 201h457z" />
    <glyph glyph-name="asciicircum" unicode="^" horiz-adv-x="1153" 
d="M518 1409h189l436 -1024h-246l-285 674l-284 -674h-246z" />
    <glyph glyph-name="underscore" unicode="_" horiz-adv-x="1024" 
d="M-127 -152h1026l-41 -210h-1024z" />
    <glyph glyph-name="grave" unicode="`" 
d="M123 1473h225l164 -332h-193z" />
    <glyph glyph-name="a" unicode="a" horiz-adv-x="1171" 
d="M809 748q-79 75 -193 75t-197 -114t-83 -283q0 -109 50 -167t146 -58t193 96zM66 393q0 284 151.5 470t374.5 186q135 0 256 -93l14 68h262l-192 -1024h-250l12 68q-130 -93 -276 -93t-249 115.5t-103 302.5z" />
    <glyph glyph-name="b" unicode="b" horiz-adv-x="1171" 
d="M836 610q0 96 -49.5 154.5t-144.5 58.5t-196 -94l-86 -453q88 -76 185 -75q126 0 208.5 115.5t82.5 293.5zM737 1049q160 0 264.5 -114t104.5 -302q0 -284 -152 -471t-384 -187q-122 0 -248 93l-13 -68h-262l277 1473h262l-94 -508q119 84 245 84z" />
    <glyph glyph-name="c" unicode="c" horiz-adv-x="976" 
d="M66 428q0 116 45 234t169.5 252.5t385.5 134.5q158 0 311 -88l-41 -224q-127 92 -267 92t-236.5 -109.5t-96.5 -279.5q0 -111 64.5 -178t188.5 -67t259 77l-43 -231q-143 -66 -317 -66t-298 121t-124 332z" />
    <glyph glyph-name="d" unicode="d" horiz-adv-x="1171" 
d="M809 748q-79 75 -193 75t-197 -114t-83 -283q0 -109 50 -167t146 -58t193 96zM66 393q0 284 151.5 470t374.5 186q135 0 256 -93l98 517h262l-276 -1473h-250l12 68q-130 -93 -276 -93t-249 115.5t-103 302.5z" />
    <glyph glyph-name="e" unicode="e" horiz-adv-x="1064" 
d="M774 668q0 80 -44 129t-127 49t-153.5 -62.5t-99.5 -173.5h420q4 28 4 58zM66 428q0 116 42 235t160.5 252.5t364.5 133.5q169 0 275 -110t106 -284q0 -109 -27 -215h-665q-2 -8 -3 -30q0 -104 69.5 -168t201.5 -64t297 94l-41 -225q-166 -72 -349 -72t-307 121.5
t-124 331.5z" />
    <glyph glyph-name="f" unicode="f" horiz-adv-x="770" 
d="M754 1278q-68 0 -109 -34t-51 -93l-23 -127h256l-36 -211h-261l-204 -1102h-263l205 1102h-174l39 211h176l31 170q27 143 121 223t221 80t260 -55l-41 -207q-79 43 -147 43z" />
    <glyph glyph-name="g" unicode="g" horiz-adv-x="1171" 
d="M809 748q-79 75 -193 75t-197 -114t-83 -283q0 -109 50 -167t146 -58t193 96zM381 -266q104 0 183 65.5t100 173.5l16 88q-121 -86 -246 -86q-162 0 -265 115.5t-103 302.5q0 284 151.5 470t374.5 186q135 0 256 -93l14 68h262l-196 -1044q-36 -207 -184 -330t-353 -123
t-389 98l43 217q167 -108 336 -108z" />
    <glyph glyph-name="h" unicode="h" horiz-adv-x="1171" 
d="M1071 755q0 -60 -12 -118l-119 -637h-262l115 621q8 32 8 78t-38.5 83t-96.5 37q-112 0 -224 -106l-133 -713h-262l277 1473h262l-101 -531q137 106 277 106t224.5 -83.5t84.5 -209.5z" />
    <glyph glyph-name="i" unicode="i" horiz-adv-x="548" 
d="M272 1298q0 64 46.5 111t111.5 47t102 -37t37 -101t-46.5 -111.5t-112.5 -47.5t-102 37.5t-36 101.5zM240 1024h262l-193 -1024h-262z" />
    <glyph glyph-name="j" unicode="j" horiz-adv-x="548" 
d="M272 1298q0 64 46.5 111t111.5 47t102 -37t37 -101t-46.5 -111.5t-112.5 -47.5t-102 37.5t-36 101.5zM-66 -473q-129 0 -260 57l41 207q83 -45 149 -45t108 35t53 92l215 1151h262l-223 -1192q-29 -145 -122.5 -225t-222.5 -80z" />
    <glyph glyph-name="k" unicode="k" horiz-adv-x="1040" 
d="M324 1473h256l-156 -828l377 379h313l-512 -510l336 -514h-291l-264 418l-80 -418h-256z" />
    <glyph glyph-name="l" unicode="l" horiz-adv-x="548" 
d="M324 1473h262l-277 -1473h-262z" />
    <glyph glyph-name="m" unicode="m" horiz-adv-x="1753" 
d="M762 1049q82 0 149.5 -40t106.5 -112q177 152 348 152q120 0 204.5 -82.5t84.5 -206.5q0 -49 -10 -107l-123 -653h-262l118 631q6 31 6 73t-36 78.5t-90 36.5q-111 0 -207 -100l-136 -719h-262l119 631q6 31 6 73t-35 78.5t-89 36.5q-107 0 -210 -100l-135 -719h-262
l193 1024h252l-17 -82q145 107 287 107z" />
    <glyph glyph-name="n" unicode="n" horiz-adv-x="1171" 
d="M1071 752q0 -57 -12 -115l-119 -637h-262l115 621q8 32 8 78t-38.5 83t-96.5 37q-112 0 -224 -106l-133 -713h-262l193 1024h252l-17 -90q145 115 287 115t225.5 -84t83.5 -213z" />
    <glyph glyph-name="o" unicode="o" horiz-adv-x="1171" 
d="M336 419q0 -95 54 -159.5t132 -64.5q142 0 228 115.5t86 285.5q0 106 -54 169.5t-132 63.5t-132.5 -30.5t-94.5 -83.5t-63.5 -127t-23.5 -169zM66 428q0 118 44 235t168.5 251.5t387.5 134.5q192 0 316 -120.5t124 -310.5q0 -279 -169 -461t-431 -182q-194 0 -317 119
t-123 334z" />
    <glyph glyph-name="p" unicode="p" horiz-adv-x="1171" 
d="M836 610q0 96 -49.5 154.5t-144.5 58.5t-196 -94l-86 -453q88 -76 185 -75q126 0 208.5 115.5t82.5 293.5zM1106 608q0 -116 -40 -237t-110.5 -208t-167 -137.5t-218.5 -50.5t-248 93l-97 -517h-262l277 1473h252l-13 -68q123 92 271 92t252 -113.5t104 -326.5z" />
    <glyph glyph-name="q" unicode="q" horiz-adv-x="1171" 
d="M809 748q-79 75 -193 75t-197 -114t-83 -283q0 -109 50 -167t146 -58t193 96zM434 -25q-162 0 -265 115.5t-103 302.5q0 284 151.5 470t374.5 186q135 0 256 -93l14 68h262l-276 -1473h-262l94 510q-121 -86 -246 -86z" />
    <glyph glyph-name="r" unicode="r" horiz-adv-x="796" 
d="M739 1049q57 0 101 -21l-45 -229q-47 18 -104 18q-122 0 -253 -131l-129 -686h-262l193 1024h252l-19 -98q133 123 266 123z" />
    <glyph glyph-name="s" unicode="s" horiz-adv-x="876" 
d="M387 740q0 -42 27.5 -65.5t68.5 -45t158 -80.5t117 -250q0 -142 -111 -233t-283 -91t-344 86l41 222q147 -100 285 -101q68 0 109 32t41 76t-28 70.5t-69 49t-88 46t-88 58.5t-68.5 84t-27.5 159.5t110.5 201t277.5 90.5t316 -78l-38 -217q-143 88 -265 88
q-63 0 -102 -30t-39 -72z" />
    <glyph glyph-name="t" unicode="t" horiz-adv-x="849" 
d="M438 290q0 -36 32 -65.5t96 -29.5t153 41l-41 -226q-110 -35 -228 -35t-199 76t-81 199q0 40 8 74l90 489h-174l39 211h176l53 289h263l-54 -289h295l-41 -211h-295l-86 -455q-6 -32 -6 -68z" />
    <glyph glyph-name="u" unicode="u" horiz-adv-x="1171" 
d="M100 272q0 53 11 117l120 635h263l-115 -621q-6 -29 -6 -77t36.5 -84.5t94.5 -36.5q112 0 223 106l135 713h262l-192 -1024h-250l16 90q-151 -115 -291 -115t-223.5 85.5t-83.5 211.5z" />
    <glyph glyph-name="v" unicode="v" horiz-adv-x="1026" 
d="M526 0h-221l-196 1024h249l109 -678l356 678h283z" />
    <glyph glyph-name="w" unicode="w" horiz-adv-x="1587" 
d="M1124 0h-235l-66 709l-327 -709h-236l-143 1024h243l70 -707l328 707h231l70 -707l327 707h273z" />
    <glyph glyph-name="x" unicode="x" horiz-adv-x="1048" 
d="M373 526l-244 498h272l148 -319l250 319h297l-428 -510l252 -514h-279l-149 338l-267 -338h-305z" />
    <glyph glyph-name="y" unicode="y" horiz-adv-x="1026" 
d="M270 -449h-270l297 490l-188 983h249l109 -678l356 678h283z" />
    <glyph glyph-name="z" unicode="z" horiz-adv-x="989" 
d="M12 172l588 641h-440l41 211h778l-33 -172l-586 -641h480l-39 -211h-819z" />
    <glyph glyph-name="braceleft" unicode="{" horiz-adv-x="684" 
d="M739 1272q-66 0 -115 -42t-61 -110l-57 -309q-16 -86 -77.5 -150.5t-154.5 -89.5q66 -25 104 -84t38 -115t-8 -89l-43 -228q-7 -29 -7 -67t34 -72.5t93 -34.5h29l-39 -200h-61q-145 0 -228.5 79.5t-83.5 214.5q0 28 11 88l47 238q2 14 4 27.5t2 27.5q0 51 -33 86t-82 35
h-22l39 199h14q63 0 113.5 51t66.5 131l60 311q27 141 136 222.5t273 81.5h80l-37 -201h-35z" />
    <glyph glyph-name="bar" unicode="|" 
d="M143 1538h228v-2050h-228v2050z" />
    <glyph glyph-name="braceright" unicode="}" horiz-adv-x="684" 
d="M-31 -119q66 0 114 42t60 112l60 307q16 86 77.5 150.5t153.5 89.5q-66 25 -103.5 84.5t-37.5 115.5t8 88l41 228q8 28 8 67t-34.5 73t-94.5 34h-26l38 201h62q145 0 227 -80t82 -215q0 -33 -10 -88l-45 -238q-2 -14 -4 -27.5t-2 -27.5q0 -51 32.5 -86t81.5 -35h21
l-37 -199h-16q-61 0 -111.5 -51t-67.5 -131l-59 -311q-27 -141 -137.5 -222t-272.5 -81h-79l36 200h35z" />
    <glyph glyph-name="asciitilde" unicode="~" horiz-adv-x="1153" 
d="M43 401q0 170 88.5 275.5t233.5 105.5q78 0 136 -28.5t107 -64.5t91 -64.5t91 -28.5t84 43t35 113h226q0 -168 -88.5 -274.5t-233.5 -106.5q-78 0 -136.5 28.5t-107.5 64.5t-91 64.5t-91 28.5t-84 -43t-35 -113h-225z" />
    <glyph glyph-name="uni00A0" unicode="&#xa0;" 
 />
    <glyph glyph-name="exclamdown" unicode="&#xa1;" horiz-adv-x="600" 
d="M526 902q0 -68 -49 -117.5t-117 -49.5t-107.5 39t-39.5 108t49.5 118t117.5 49t107 -39.5t39 -107.5zM262 -385h-262l184 983h262z" />
    <glyph glyph-name="cent" unicode="&#xa2;" horiz-adv-x="1153" 
d="M188 586q0 256 133.5 430t350.5 213l59 309h225l-59 -309q106 -18 205 -76l-43 -223q-127 92 -267 92t-236.5 -110t-96.5 -281q0 -111 65.5 -177.5t185.5 -66.5t263 78l-45 -234q-113 -51 -228 -59l-57 -301h-225l61 322q-133 41 -212 148.5t-79 244.5z" />
    <glyph glyph-name="sterling" unicode="&#xa3;" horiz-adv-x="1153" 
d="M911 1434q129 0 265 -66l-43 -217q-88 57 -177 57q-131 0 -194 -135l-121 -250h264l-39 -213h-325l-187 -391h654l-41 -219h-957l33 168l209 442h-115l41 213h172l154 320q140 291 407 291z" />
    <glyph glyph-name="currency" unicode="&#xa4;" horiz-adv-x="1153" 
d="M383 704.5q0 -102.5 63.5 -166t166 -63.5t167 63.5t64.5 166t-64.5 167t-167 64.5t-166 -64.5t-63.5 -167zM180 704q0 126 56 218l-179 178l160 160l176 -179q96 57 220 57t216 -57l179 179l159 -160l-178 -178q57 -96 57 -218t-57 -219l178 -176l-159 -159l-179 178
q-90 -55 -217 -55.5t-219 55.5l-176 -178l-160 159l179 176q-56 93 -56 219z" />
    <glyph glyph-name="yen" unicode="&#xa5;" horiz-adv-x="1153" 
d="M383 258h-295l35 180h293l28 160h-290l32 178h226l-258 633h280l191 -518l381 518h317l-494 -633h213l-34 -178h-293l-29 -160h293l-35 -180h-293l-49 -258h-268z" />
    <glyph glyph-name="brokenbar" unicode="&#xa6;" 
d="M143 385h228v-770h-228v770zM143 1409h228v-768h-228v768z" />
    <glyph glyph-name="section" unicode="&#xa7;" horiz-adv-x="1024" 
d="M367 607q0 -80 54.5 -118t174.5 -92q41 27 67.5 69t26.5 108t-51 102t-176 92q-41 -29 -68.5 -72t-27.5 -89zM934 590.5q0 -208.5 -172 -328.5q53 -78 53 -168q0 -172 -124 -273.5t-310 -101.5t-379 99l41 229q168 -113 322 -113q82 0 132 38t50 92t-32 85t-79 56.5
t-181 93.5t-134 285q0 94 46 177t130 142q-57 82 -57 166q0 163 125.5 264t300.5 101t352 -86l-41 -226q-152 96 -293 97q-78 0 -126 -36.5t-48 -88.5t31.5 -80.5t79 -54t180.5 -93t133 -276z" />
    <glyph glyph-name="dieresis" unicode="&#xa8;" 
d="M475 1298q0 62 45.5 107t107.5 45t98 -35t36 -97t-45 -108.5t-107 -46.5t-98.5 36.5t-36.5 98.5zM41 1298q0 62 46.5 107t108.5 45t98 -35t36 -97t-46 -108.5t-108 -46.5t-98.5 36.5t-36.5 98.5z" />
    <glyph glyph-name="copyright" unicode="&#xa9;" horiz-adv-x="1730" 
d="M958 438q106 0 218 68v-172q-124 -60 -232 -60t-184 32t-131.5 89.5t-86 136t-30.5 220t117 262.5t299 121q125 0 248 -60v-172q-112 70 -218 70t-176.5 -75t-70.5 -193.5t70.5 -192.5t176.5 -74zM313 704.5q0 -129.5 43 -238t122 -186t186.5 -121.5t236.5 -44t237.5 44
t187.5 121.5t122 186t43 238t-43 238t-122 186t-187.5 121.5t-237.5 44t-236.5 -44t-186.5 -121.5t-122 -186t-43 -238zM166 704.5q0 161.5 54 297t151.5 233.5t232.5 152.5t297 54.5t297 -54.5t233.5 -152.5t152.5 -233.5t54 -297t-54 -297t-152.5 -233.5t-233.5 -152.5
t-297 -54.5t-297 54.5t-232.5 152.5t-151.5 233.5t-54 297z" />
    <glyph glyph-name="ordfeminine" unicode="&#xaa;" horiz-adv-x="765" 
d="M350 1058q0 -78 29 -111.5t79 -33.5t107 54l49 256q-48 41 -110 41t-108 -64t-46 -142zM378 754q-91 0 -155.5 73t-64.5 175q0 186 93.5 304.5t233.5 118.5q84 0 156 -55l6 39h191l-121 -641h-178l8 39q-78 -53 -169 -53zM98 651h621l-31 -149h-616z" />
    <glyph glyph-name="guillemotleft" unicode="&#xab;" horiz-adv-x="1329" 
d="M387 506l289 -432h-258l-338 444l483 432h295zM870 506l289 -432h-258l-340 444l483 432h297z" />
    <glyph glyph-name="logicalnot" unicode="&#xac;" horiz-adv-x="1153" 
d="M76 690h1026v-627h-225v400h-801v227z" />
    <glyph glyph-name="uni00AD" unicode="&#xad;" horiz-adv-x="641" 
d="M80 627h522l-41 -211h-522z" />
    <glyph glyph-name="registered" unicode="&#xae;" horiz-adv-x="1024" 
d="M442 1233h179q74 0 120.5 -43t46.5 -111q0 -100 -88 -139l107 -186h-119l-94 172h-43v-172h-109v479zM551 1012h55q31 0 51.5 18t20.5 48t-20.5 49.5t-51.5 19.5h-55v-135zM258 993.5q0 -75.5 25.5 -138t71.5 -109t108.5 -72t138.5 -25.5t138.5 25.5t108.5 72t71.5 109
t25.5 138t-25.5 138t-71.5 108.5t-108.5 71.5t-138.5 25.5t-138.5 -25.5t-108.5 -71.5t-71.5 -108.5t-25.5 -138zM162 993.5q0 96.5 32.5 177t91 139t139.5 91.5t177 33t177 -33t139.5 -91.5t91 -139t32.5 -177t-32.5 -177.5t-91 -139.5t-139.5 -91t-177 -32.5t-177 32.5
t-139.5 91t-91 139.5t-32.5 177.5z" />
    <glyph glyph-name="macron" unicode="&#xaf;" 
d="M78 1397h686l-35 -178h-686z" />
    <glyph glyph-name="degree" unicode="&#xb0;" horiz-adv-x="747" 
d="M356 1146q0 -58 36 -94t94 -36t94 36t36 94t-36 94t-94 36t-94 -36t-36 -94zM199 1146q0 128 79.5 208t207.5 80t208 -80t80 -208t-80 -208t-208 -80t-207.5 80t-79.5 208z" />
    <glyph glyph-name="plusminus" unicode="&#xb1;" horiz-adv-x="1153" 
d="M76 225h1026v-225h-1026v225zM76 938h399v399h227v-399h400v-225h-400v-402h-227v402h-399v225z" />
    <glyph glyph-name="uni00B2" unicode="&#xb2;" horiz-adv-x="645" 
d="M539 1408q0 46 -28 74.5t-79 28.5q-96 0 -201 -73l33 186q111 55 227 55t182 -63.5t66 -167.5q0 -208 -333 -453h260l-31 -161h-537l25 124q187 117 301.5 240t114.5 210z" />
    <glyph glyph-name="uni00B3" unicode="&#xb3;" horiz-adv-x="636" 
d="M485 1084q0 44 -33.5 70t-89.5 26h-40l28 151h41q66 0 107 31t41 73t-28 64.5t-73 22.5q-90 0 -192 -58l30 174q104 41 209 41t174.5 -56t69.5 -140t-44 -144.5t-120 -85.5q53 -23 84 -67.5t31 -129.5t-91 -161t-227 -76q-137 0 -245 66l30 166q99 -74 201 -74
q57 0 97 31.5t40 75.5z" />
    <glyph glyph-name="acute" unicode="&#xb4;" 
d="M506 1473h260l-320 -332h-223z" />
    <glyph glyph-name="mu" unicode="&#xb5;" horiz-adv-x="1179" 
d="M381 344q0 -66 37 -102.5t95 -36.5q114 0 224 106l133 713h263l-193 -1024h-250l17 90q-117 -104 -242 -104q-84 0 -150 55l-90 -490h-262l277 1473h262l-115 -621q-6 -31 -6 -59z" />
    <glyph glyph-name="paragraph" unicode="&#xb6;" horiz-adv-x="1208" 
d="M555 553q-188 0 -298 100t-110 265q0 209 161.5 350t398.5 141h485l-311 -1665h-226l269 1440h-168l-119 -631h-82z" />
    <glyph glyph-name="periodcentered" unicode="&#xb7;" 
d="M100 502q0 68 49.5 117t116.5 49t107.5 -39t40.5 -107t-49.5 -118t-117.5 -50t-107.5 40t-39.5 108z" />
    <glyph glyph-name="cedilla" unicode="&#xb8;" 
d="M328 -250q0 -98 -78 -160.5t-179 -62.5t-202 49l29 150q66 -48 122 -48t84.5 23t28.5 57.5t-28.5 57t-73.5 22.5h-8l71 162h166l-43 -96q51 -16 81 -58.5t30 -95.5z" />
    <glyph glyph-name="uni00B9" unicode="&#xb9;" horiz-adv-x="548" 
d="M412 1454l-213 -88l32 176l293 123h123l-155 -831h-197z" />
    <glyph glyph-name="ordmasculine" unicode="&#xba;" horiz-adv-x="765" 
d="M350 1060q0 -150 124 -151q62 0 109.5 65.5t47.5 143.5q0 150 -113 150q-72 0 -120 -65t-48 -143zM158 1008q0 191 106.5 304t276.5 113q123 0 202.5 -75.5t79.5 -178.5q0 -190 -106 -303.5t-277 -113.5q-125 0 -203.5 75t-78.5 179zM98 651h621l-31 -149h-616z" />
    <glyph glyph-name="guillemotright" unicode="&#xbb;" horiz-adv-x="1329" 
d="M940 518l-289 432h260l338 -444l-483 -432h-295zM459 518l-289 432h258l340 -444l-485 -432h-295z" />
    <glyph glyph-name="onequarter" unicode="&#xbc;" horiz-adv-x="1730" 
d="M1364 338l43 229l-211 -229h168zM1337 193h-348l27 135l461 503h163l-94 -493h119l-27 -145h-118l-37 -193h-180zM1450 1409h215l-1313 -1409h-215zM442 1198l-213 -88l33 176l293 123h123l-156 -831h-196z" />
    <glyph glyph-name="onehalf" unicode="&#xbd;" horiz-adv-x="1730" 
d="M442 1198l-213 -88l33 176l293 123h123l-156 -831h-196zM1438 574q0 46 -28 75t-79 29q-96 0 -201 -74l33 187q111 55 227 55t182 -64t66 -168q0 -207 -333 -452h260l-31 -162h-537l25 125q288 181 352 292t64 157zM1450 1409h215l-1313 -1409h-215z" />
    <glyph glyph-name="threequarters" unicode="&#xbe;" horiz-adv-x="1730" 
d="M1364 338l43 229l-211 -229h168zM1337 193h-348l27 135l461 503h163l-94 -493h119l-27 -145h-118l-37 -193h-180zM1450 1409h215l-1313 -1409h-215zM336 721q57 0 97 31.5t40 75.5t-33.5 70t-89.5 26h-41l29 151h41q66 0 106.5 31t40.5 73t-27.5 64.5t-72.5 22.5
q-90 0 -193 -58l31 174q104 41 209 41t174.5 -56t69.5 -140t-44 -144.5t-120 -85.5q53 -23 84 -67.5t31 -129t-91.5 -161t-227.5 -76.5t-245 66l31 166q99 -74 201 -74z" />
    <glyph glyph-name="questiondown" unicode="&#xbf;" horiz-adv-x="929" 
d="M735 902q0 -68 -49.5 -116.5t-117.5 -48.5t-107 39t-39 107t49 118t117 50t107.5 -40.5t39.5 -108.5zM281 -35q0 -60 45 -101.5t123 -41.5q141 0 305 115l-49 -259q-152 -86 -326 -86t-273.5 96.5t-99.5 263t159 310.5t197.5 195t47.5 104l6 37h252l-13 -63
q-30 -169 -171 -287.5t-172 -170.5t-31 -112z" />
    <glyph glyph-name="Agrave" unicode="&#xc0;" horiz-adv-x="1314" 
d="M494 539h385l-93 534zM721 1409h223l275 -1409h-248l-60 338h-528l-184 -338h-277zM604 1858h225l164 -332h-192z" />
    <glyph glyph-name="Aacute" unicode="&#xc1;" horiz-adv-x="1314" 
d="M494 539h385l-93 534zM721 1409h223l275 -1409h-248l-60 338h-528l-184 -338h-277zM987 1858h260l-319 -332h-223z" />
    <glyph glyph-name="Acircumflex" unicode="&#xc2;" horiz-adv-x="1314" 
d="M494 539h385l-93 534zM721 1409h223l275 -1409h-248l-60 338h-528l-184 -338h-277zM793 1858h231l162 -332h-187l-108 184l-176 -184h-209z" />
    <glyph glyph-name="Atilde" unicode="&#xc3;" horiz-adv-x="1314" 
d="M494 539h385l-93 534zM721 1409h223l275 -1409h-248l-60 338h-528l-184 -338h-277zM1176 1622q-68 -72 -152 -72t-160 57q-28 22 -54 40t-56 18t-55 -25q-24 -25 -31 -65h-156q16 117 84 189t151 71q83 0 159 -58q30 -22 56 -39q63 -41 109 7q25 25 33 65h156
q-16 -116 -84 -188z" />
    <glyph glyph-name="Adieresis" unicode="&#xc4;" horiz-adv-x="1314" 
d="M494 539h385l-93 534zM721 1409h223l275 -1409h-248l-60 338h-528l-184 -338h-277zM956 1682q0 62 46 108q46 45 108 45t97 -35q36 -36 36 -98t-45 -108q-46 -46 -108 -46t-98 36t-36 98zM522 1682q0 62 46 108q46 45 108 45t99 -35q36 -36 36 -98t-46 -108
q-45 -46 -107 -46t-99 36t-37 98z" />
    <glyph glyph-name="Aring" unicode="&#xc5;" horiz-adv-x="1314" 
d="M494 539h385l-93 534zM721 1409h223l275 -1409h-248l-60 338h-528l-184 -338h-277zM784 1686q0 -44 25 -70t69 -25q44 0 75 32q32 32 32 76q-1 43 -25 69t-68 26t-76 -32t-32 -76zM1102 1732q0 -121 -70 -189t-163 -68t-148 55q-55 54 -55 148t67 161t164 69
q97 0 151 -54t54 -122z" />
    <glyph glyph-name="AE" unicode="&#xc6;" horiz-adv-x="1865" 
d="M569 518h342l105 559zM872 315h-458l-252 -315h-307l1138 1409h922l-39 -219h-569l-70 -367h489l-40 -215h-490l-72 -389h584l-41 -219h-852z" />
    <glyph glyph-name="Ccedilla" unicode="&#xc7;" horiz-adv-x="1257" 
d="M587.5 1368.5q145.5 65.5 335.5 65.5t394 -121l-45 -232q-176 127 -350 127q-232 0 -382.5 -177t-150.5 -447q0 -173 101.5 -278t274.5 -105q172 0 361 110l-43 -248q-163 -80 -362 -86l-31 -73q49 -16 79 -58.5t30 -95.5q0 -98 -78 -160.5t-179 -62.5t-202 49l29 150
q70 -48 124 -48t82.5 23t28.5 57.5t-27.5 57t-74.5 22.5h-8l65 150q-203 41 -323.5 193.5t-120.5 357.5t59 367.5t163.5 279.5t250 182.5z" />
    <glyph glyph-name="Egrave" unicode="&#xc8;" horiz-adv-x="1138" 
d="M352 1409h836l-39 -219h-569l-68 -367h485l-36 -215h-490l-74 -389h584l-41 -219h-852zM535 1858h225l164 -332h-193z" />
    <glyph glyph-name="Eacute" unicode="&#xc9;" horiz-adv-x="1138" 
d="M352 1409h836l-39 -219h-569l-68 -367h485l-36 -215h-490l-74 -389h584l-41 -219h-852zM918 1858h260l-320 -332h-223z" />
    <glyph glyph-name="Ecircumflex" unicode="&#xca;" horiz-adv-x="1138" 
d="M352 1409h836l-39 -219h-569l-68 -367h485l-36 -215h-490l-74 -389h584l-41 -219h-852zM723 1858h231l162 -332h-186l-109 184l-176 -184h-209z" />
    <glyph glyph-name="Edieresis" unicode="&#xcb;" horiz-adv-x="1138" 
d="M352 1409h836l-39 -219h-569l-68 -367h485l-36 -215h-490l-74 -389h584l-41 -219h-852zM887 1682q0 62 46 108q45 45 107 45t98 -35q36 -36 36 -98t-46 -108t-107 -46q-62 0 -98 36t-36 98zM453 1682q0 62 46 108q46 45 108 45q63 0 99 -35q36 -36 36 -98t-47 -108
q-46 -46 -107 -46t-99 36q-36 36 -36 98z" />
    <glyph glyph-name="Igrave" unicode="&#xcc;" horiz-adv-x="634" 
d="M352 1409h269l-267 -1409h-266zM256 1858h225l164 -332h-192z" />
    <glyph glyph-name="Iacute" unicode="&#xcd;" horiz-adv-x="634" 
d="M352 1409h269l-267 -1409h-266zM639 1858h260l-319 -332h-224z" />
    <glyph glyph-name="Icircumflex" unicode="&#xce;" horiz-adv-x="634" 
d="M352 1409h269l-267 -1409h-266zM444 1858h232l162 -332h-187l-108 184l-176 -184h-209z" />
    <glyph glyph-name="Idieresis" unicode="&#xcf;" horiz-adv-x="634" 
d="M352 1409h269l-267 -1409h-266zM608 1682q0 62 46 108q46 45 108 45t97 -35q36 -36 36 -98t-45 -108q-46 -46 -108 -46t-98 36t-36 98zM174 1682q0 62 46 108q46 45 108 45t99 -35q36 -36 36 -98t-46 -108q-45 -46 -107 -46t-99 36t-37 98z" />
    <glyph glyph-name="Eth" unicode="&#xd0;" horiz-adv-x="1474" 
d="M649 219q221 0 364.5 174t143.5 445q0 164 -94 258t-262 94h-191l-69 -383h284l-32 -180h-287l-78 -408h221zM846 1409q260 0 424 -152.5t164 -396.5q0 -391 -219.5 -625.5t-583.5 -234.5h-512l117 627h-173l33 180h174l113 602h463z" />
    <glyph glyph-name="Ntilde" unicode="&#xd1;" horiz-adv-x="1507" 
d="M352 1409h219l486 -983l182 983h254l-264 -1409h-221l-486 983l-182 -983h-252zM1264 1622q-68 -72 -152 -72t-160 57q-28 22 -54 40t-56 18t-55 -25q-24 -25 -31 -65h-156q16 117 84 189t151 71q83 0 159 -58q30 -22 56 -39q63 -41 109 7q25 25 33 65h156
q-16 -116 -84 -188z" />
    <glyph glyph-name="Ograve" unicode="&#xd2;" horiz-adv-x="1507" 
d="M389 554q0 -150 86 -252q86 -101 232 -101q201 0 342 184q141 183 141 471q0 152 -86 252t-232 100q-198 0 -341 -184q-142 -182 -142 -470zM115 581q0 161 58 323q118 331 411 464q144 66 292 66q276 0 434 -158q156 -158 156 -416q0 -388 -221 -636
q-105 -118 -249 -184t-292 -65q-148 0 -253 42q-336 136 -336 564zM692 1858h226l163 -332h-192z" />
    <glyph glyph-name="Oacute" unicode="&#xd3;" horiz-adv-x="1507" 
d="M389 554q0 -150 86 -252q86 -101 232 -101q201 0 342 184q141 183 141 471q0 152 -86 252t-232 100q-198 0 -341 -184q-142 -182 -142 -470zM115 581q0 161 58 323q118 331 411 464q144 66 292 66q276 0 434 -158q156 -158 156 -416q0 -388 -221 -636
q-105 -118 -249 -184t-292 -65q-148 0 -253 42q-336 136 -336 564zM1075 1858h260l-319 -332h-223z" />
    <glyph glyph-name="Ocircumflex" unicode="&#xd4;" horiz-adv-x="1507" 
d="M389 554q0 -150 86 -252q86 -101 232 -101q201 0 342 184q141 183 141 471q0 152 -86 252t-232 100q-198 0 -341 -184q-142 -182 -142 -470zM115 581q0 161 58 323q118 331 411 464q144 66 292 66q276 0 434 -158q156 -158 156 -416q0 -388 -221 -636
q-105 -118 -249 -184t-292 -65q-148 0 -253 42q-336 136 -336 564zM881 1858h231l162 -332h-187l-108 184l-176 -184h-209z" />
    <glyph glyph-name="Otilde" unicode="&#xd5;" horiz-adv-x="1507" 
d="M389 554q0 -150 86 -252q86 -101 232 -101q201 0 342 184q141 183 141 471q0 152 -86 252t-232 100q-198 0 -341 -184q-142 -182 -142 -470zM115 581q0 161 58 323q118 331 411 464q144 66 292 66q276 0 434 -158q156 -158 156 -416q0 -388 -221 -636
q-105 -118 -249 -184t-292 -65q-148 0 -253 42q-336 136 -336 564zM1264 1622q-68 -72 -152 -72t-160 57q-28 22 -54 40t-56 18t-55 -25q-24 -25 -31 -65h-156q16 117 84 189t151 71q83 0 159 -58q30 -22 56 -39q63 -41 109 7q25 25 33 65h156q-16 -116 -84 -188z" />
    <glyph glyph-name="Odieresis" unicode="&#xd6;" horiz-adv-x="1507" 
d="M389 554q0 -150 86 -252q86 -101 232 -101q201 0 342 184q141 183 141 471q0 152 -86 252t-232 100q-198 0 -341 -184q-142 -182 -142 -470zM115 581q0 161 58 323q118 331 411 464q144 66 292 66q276 0 434 -158q156 -158 156 -416q0 -388 -221 -636
q-105 -118 -249 -184t-292 -65q-148 0 -253 42q-336 136 -336 564zM1044 1682q0 62 46 108q46 45 108 45q61 0 97 -35q36 -36 36 -98t-45 -108t-107 -46t-99 36q-36 36 -36 98zM610 1682q0 62 46 108q46 45 108 45t99 -35q36 -36 36 -98t-46 -108q-45 -46 -107 -46t-99 36
t-37 98z" />
    <glyph glyph-name="multiply" unicode="&#xd7;" horiz-adv-x="1153" 
d="M102 248l328 330l-328 327l158 158l330 -328l328 328l157 -158l-327 -327l327 -330l-157 -158l-328 328l-330 -328z" />
    <glyph glyph-name="Oslash" unicode="&#xd8;" horiz-adv-x="1507" 
d="M389 571q0 -82 27 -151l661 710q-82 78 -193 78q-211 0 -353 -184t-142 -453zM1190 838q0 73 -25 153l-663 -712q82 -78 194 -78q213 0 353.5 185t140.5 452zM115 545q0 197 58 359.5t162.5 280.5t248 183.5t331.5 65.5t340 -113l82 88h217l-188 -201q100 -149 100 -346
t-58 -358.5t-162.5 -279.5t-249 -183.5t-335.5 -65.5t-335 115l-84 -90h-217l188 203q-98 145 -98 342z" />
    <glyph glyph-name="Ugrave" unicode="&#xd9;" horiz-adv-x="1507" 
d="M172 426q0 61 12 133l160 850h268l-157 -850q-3 -27 -7 -51t-4 -45q0 -117 71 -190t200 -73t225 87q96 86 123 229l168 893h268l-170 -924q-47 -242 -222 -376q-174 -134 -411 -134q-238 0 -381 126t-143 325zM692 1858h226l163 -332h-192z" />
    <glyph glyph-name="Uacute" unicode="&#xda;" horiz-adv-x="1507" 
d="M172 426q0 61 12 133l160 850h268l-157 -850q-3 -27 -7 -51t-4 -45q0 -117 71 -190t200 -73t225 87q96 86 123 229l168 893h268l-170 -924q-47 -242 -222 -376q-174 -134 -411 -134q-238 0 -381 126t-143 325zM1075 1858h260l-319 -332h-223z" />
    <glyph glyph-name="Ucircumflex" unicode="&#xdb;" horiz-adv-x="1507" 
d="M172 426q0 61 12 133l160 850h268l-157 -850q-3 -27 -7 -51t-4 -45q0 -117 71 -190t200 -73t225 87q96 86 123 229l168 893h268l-170 -924q-47 -242 -222 -376q-174 -134 -411 -134q-238 0 -381 126t-143 325zM881 1858h231l162 -332h-187l-108 184l-176 -184h-209z" />
    <glyph glyph-name="Udieresis" unicode="&#xdc;" horiz-adv-x="1507" 
d="M172 426q0 61 12 133l160 850h268l-157 -850q-3 -27 -7 -51t-4 -45q0 -117 71 -190t200 -73t225 87q96 86 123 229l168 893h268l-170 -924q-47 -242 -222 -376q-174 -134 -411 -134q-238 0 -381 126t-143 325zM1044 1682q0 62 46 108q46 45 108 45q61 0 97 -35
q36 -36 36 -98t-45 -108t-107 -46t-99 36q-36 36 -36 98zM610 1682q0 62 46 108q46 45 108 45t99 -35q36 -36 36 -98t-46 -108q-45 -46 -107 -46t-99 36t-37 98z" />
    <glyph glyph-name="Yacute" unicode="&#xdd;" horiz-adv-x="1241" 
d="M489 598l-329 811h282l213 -582l428 582h322l-649 -836l-109 -573h-270zM930 1858h260l-320 -332h-223z" />
    <glyph glyph-name="Thorn" unicode="&#xde;" horiz-adv-x="1230" 
d="M614 475q138 0 224 78t86 185q0 108 -60.5 161t-169.5 53h-164l-92 -477h176zM766 1165q194 0 312 -104.5t118 -280.5q0 -219 -168 -368.5t-420 -149.5h-209l-49 -262h-262l264 1409h262l-47 -244h199z" />
    <glyph glyph-name="germandbls" unicode="&#xdf;" horiz-adv-x="1363" 
d="M999 294q0 44 -24.5 70.5t-62.5 52t-144 93t-106 229.5q0 80 32.5 134.5t72.5 98.5t72.5 84t32.5 96t-44 94t-116 38t-124.5 -46t-69.5 -124l-264 -1403h-260l266 1419q28 166 154.5 266.5t308.5 100.5t298 -90.5t116 -232.5q0 -84 -34 -140.5t-74 -101.5t-72.5 -84
t-32.5 -82t24.5 -71.5t62.5 -55.5t144.5 -93.5t106.5 -224.5t-113 -252t-283 -94t-342 86l39 222q147 -100 287 -101q70 0 109.5 34t39.5 78z" />
    <glyph glyph-name="agrave" unicode="&#xe0;" horiz-adv-x="1171" 
d="M809 748q-79 75 -193 75t-197 -113t-83 -284q0 -109 50 -167t146 -58t193 96zM694 68q-130 -93 -276 -93t-250 117t-102 301q0 284 151 469t375 187q135 0 256 -93l14 68h262l-192 -1024h-250zM453 1473h225l164 -332h-193z" />
    <glyph glyph-name="aacute" unicode="&#xe1;" horiz-adv-x="1171" 
d="M809 748q-79 75 -193 75t-197 -113t-83 -284q0 -109 50 -167t146 -58t193 96zM694 68q-130 -93 -276 -93t-250 117t-102 301q0 284 151 469t375 187q135 0 256 -93l14 68h262l-192 -1024h-250zM836 1473h260l-320 -332h-223z" />
    <glyph glyph-name="acircumflex" unicode="&#xe2;" horiz-adv-x="1171" 
d="M809 748q-79 75 -193 75t-197 -113t-83 -284q0 -109 50 -167t146 -58t193 96zM694 68q-130 -93 -276 -93t-250 117t-102 301q0 284 151 469t375 187q135 0 256 -93l14 68h262l-192 -1024h-250zM641 1473h231l162 -332h-186l-109 184l-176 -184h-209z" />
    <glyph glyph-name="atilde" unicode="&#xe3;" horiz-adv-x="1171" 
d="M809 748q-79 75 -193 75t-197 -113t-83 -284q0 -109 50 -167t146 -58t193 96zM694 68q-130 -93 -276 -93t-250 117t-102 301q0 284 151 469t375 187q135 0 256 -93l14 68h262l-192 -1024h-250zM610 1450q66 0 145 -58q29 -22 55 -39t56 -17t54 24q25 25 32 65h156
q-16 -117 -84 -189t-153 -71q-85 0 -158 57q-29 22 -55 40t-56 18t-54 -25t-32 -65h-156q16 116 84 188t166 72z" />
    <glyph glyph-name="adieresis" unicode="&#xe4;" horiz-adv-x="1171" 
d="M809 748q-79 75 -193 75t-197 -113t-83 -284q0 -109 50 -167t146 -58t193 96zM694 68q-130 -93 -276 -93t-250 117t-102 301q0 284 151 469t375 187q135 0 256 -93l14 68h262l-192 -1024h-250zM805 1298q0 62 46 107q45 45 107 45t98 -35t36 -97t-45 -109
q-45 -46 -107 -46t-99 36q-36 37 -36 99zM371 1298q0 62 46 107t108 45q63 0 99 -35t36 -97t-47 -109q-46 -46 -107 -46t-98 36q-37 37 -37 99z" />
    <glyph glyph-name="aring" unicode="&#xe5;" horiz-adv-x="1171" 
d="M809 748q-79 75 -193 75t-197 -113t-83 -284q0 -109 50 -167t146 -58t193 96zM694 68q-130 -93 -276 -93t-250 117t-102 301q0 284 151 469t375 187q135 0 256 -93l14 68h262l-192 -1024h-250zM834 1314q0 44 -25 70t-69 25q-44 0 -76 -32t-31 -76q1 -43 25 -69t68 -26
t76 32t32 76zM950 1346q0 -122 -70 -189t-162 -67q-93 0 -149 55q-55 55 -55 149t68 161t164 68t150 -53q54 -56 54 -124z" />
    <glyph glyph-name="ae" unicode="&#xe6;" horiz-adv-x="1658" 
d="M1370 630v38q0 80 -43 129t-127 49t-154.5 -62.5t-99.5 -173.5h420q4 16 4 20zM289 297q0 -53 40 -88t105 -35q133 0 248 113q-16 59 -16 107t6 83q-58 8 -117 8q-117 0 -191.5 -53t-74.5 -135zM533 641q95 0 167 -8l7 37q4 10 4 12v29q0 61 -46.5 98t-119.5 37
q-162 0 -336 -86l41 219q178 70 356 70t283 -129q137 129 323 129t293 -111t107 -283q0 -100 -29 -215h-665q-2 -8 -3 -30q0 -104 70 -168t203 -64t297 94l-41 -225q-168 -72 -354 -72t-326 154q-201 -154 -410 -154q-142 0 -232.5 77.5t-90.5 197.5q0 172 107.5 253
t203.5 109.5t191 28.5z" />
    <glyph glyph-name="ccedilla" unicode="&#xe7;" horiz-adv-x="976" 
d="M66 436q0 110 45 227t169.5 251.5t385.5 134.5q158 0 311 -88l-41 -224q-127 92 -267 92t-236.5 -109.5t-96.5 -279.5q0 -111 64.5 -178t188.5 -67t259 77l-43 -231q-108 -53 -248 -64l-31 -73q49 -16 79 -58.5t30 -95.5q0 -98 -78 -160.5t-179 -62.5t-202 49l29 150
q70 -48 124 -48t81.5 23t27.5 57.5t-27.5 57t-74.5 22.5h-8l67 150q-150 32 -239.5 145t-89.5 303z" />
    <glyph glyph-name="egrave" unicode="&#xe8;" horiz-adv-x="1064" 
d="M774 668q0 80 -44 129t-127 49t-153 -62t-100 -174h420q4 28 4 58zM66 428q0 116 42 236q84 239 298 336q104 48 208 48q188 1 294 -109t106 -284q0 -109 -27 -215h-665q-2 -8 -3 -30q0 -104 70 -168q69 -64 201 -64t297 94l-41 -225q-166 -72 -349 -72t-307 121
t-124 332zM438 1473h226l163 -332h-192z" />
    <glyph glyph-name="eacute" unicode="&#xe9;" horiz-adv-x="1064" 
d="M774 668q0 80 -44 129t-127 49t-153 -62t-100 -174h420q4 28 4 58zM66 428q0 116 42 236q84 239 298 336q104 48 208 48q188 1 294 -109t106 -284q0 -109 -27 -215h-665q-2 -8 -3 -30q0 -104 70 -168q69 -64 201 -64t297 94l-41 -225q-166 -72 -349 -72t-307 121
t-124 332zM821 1473h260l-319 -332h-223z" />
    <glyph glyph-name="ecircumflex" unicode="&#xea;" horiz-adv-x="1064" 
d="M774 668q0 80 -44 129t-127 49t-153 -62t-100 -174h420q4 28 4 58zM66 428q0 116 42 236q84 239 298 336q104 48 208 48q188 1 294 -109t106 -284q0 -109 -27 -215h-665q-2 -8 -3 -30q0 -104 70 -168q69 -64 201 -64t297 94l-41 -225q-166 -72 -349 -72t-307 121
t-124 332zM627 1473h231l162 -332h-186l-109 184l-176 -184h-209z" />
    <glyph glyph-name="edieresis" unicode="&#xeb;" horiz-adv-x="1064" 
d="M774 668q0 80 -44 129t-127 49t-153 -62t-100 -174h420q4 28 4 58zM66 428q0 116 42 236q84 239 298 336q104 48 208 48q188 1 294 -109t106 -284q0 -109 -27 -215h-665q-2 -8 -3 -30q0 -104 70 -168q69 -64 201 -64t297 94l-41 -225q-166 -72 -349 -72t-307 121
t-124 332zM791 1298q0 62 46 107t107 45t97 -35t36 -97t-45 -109q-45 -46 -107 -46t-99 36q-35 37 -35 99zM356 1298q0 62 46 107t108 45t99 -35q36 -35 36 -97t-46 -109q-45 -46 -107 -46t-99 36q-37 37 -37 99z" />
    <glyph glyph-name="igrave" unicode="&#xec;" horiz-adv-x="548" 
d="M240 1024h262l-193 -1024h-262zM141 1473h226l163 -332h-192z" />
    <glyph glyph-name="iacute" unicode="&#xed;" horiz-adv-x="548" 
d="M240 1024h262l-193 -1024h-262zM524 1473h260l-319 -332h-223z" />
    <glyph glyph-name="icircumflex" unicode="&#xee;" horiz-adv-x="548" 
d="M240 1024h262l-193 -1024h-262zM330 1473h231l162 -332h-186l-109 184l-176 -184h-209z" />
    <glyph glyph-name="idieresis" unicode="&#xef;" horiz-adv-x="548" 
d="M240 1024h262l-193 -1024h-262zM494 1298q0 62 46 107t107 45t97 -35t36 -97t-45 -109q-45 -46 -107 -46t-99 36q-35 37 -35 99zM59 1298q0 62 46 107q47 45 109 45t98 -35t36 -97t-46 -109q-46 -46 -108 -46t-98 36q-37 37 -37 99z" />
    <glyph glyph-name="eth" unicode="&#xf0;" horiz-adv-x="1171" 
d="M336 416q0 -92 53 -156.5t131 -64.5q147 0 233.5 135t86.5 309q0 66 -6 113q-90 78 -208 78t-204 -119.5t-86 -294.5zM936 1274q176 -252 176 -564t-176 -523.5t-442 -211.5q-187 0 -307.5 122.5t-120.5 308.5q0 280 156 461.5t392 181.5q96 0 187 -58q-37 115 -105 213
l-293 -90l37 182l148 45q-66 70 -150 132h322q37 -32 63 -60l236 72l-33 -180z" />
    <glyph glyph-name="ntilde" unicode="&#xf1;" horiz-adv-x="1171" 
d="M801 699q0 46 -38 83q-39 37 -97 37q-112 0 -224 -106l-133 -713h-262l193 1024h252l-17 -90q145 115 285 115t227 -84q86 -86 84 -213q0 -57 -12 -115l-119 -637h-262l115 621q8 32 8 78zM1028 1236q-68 -72 -153 -71q-85 0 -158 57q-29 22 -55 40t-56 18t-54 -25
t-32 -65h-155q16 116 84 188t149 72t161 -58q29 -22 55 -39t56 -17t54 24q25 25 32 65h156q-16 -117 -84 -189z" />
    <glyph glyph-name="ograve" unicode="&#xf2;" horiz-adv-x="1171" 
d="M336 419q0 -95 54 -160t147 -64q124 0 212 114q87 115 87 287q0 106 -54 170t-132 63q-78 0 -133 -30q-111 -64 -157 -211q-24 -74 -24 -169zM66 428q0 118 44 235t124 203q168 181 432 183q192 0 316 -120t124 -311q0 -282 -168 -461q-168 -180 -432 -182q-98 0 -179 32
q-261 104 -261 421zM453 1473h225l164 -332h-193z" />
    <glyph glyph-name="oacute" unicode="&#xf3;" horiz-adv-x="1171" 
d="M336 419q0 -95 54 -160t147 -64q124 0 212 114q87 115 87 287q0 106 -54 170t-132 63q-78 0 -133 -30q-111 -64 -157 -211q-24 -74 -24 -169zM66 428q0 118 44 235t124 203q168 181 432 183q192 0 316 -120t124 -311q0 -282 -168 -461q-168 -180 -432 -182q-98 0 -179 32
q-261 104 -261 421zM836 1473h260l-320 -332h-223z" />
    <glyph glyph-name="ocircumflex" unicode="&#xf4;" horiz-adv-x="1171" 
d="M336 419q0 -95 54 -160t147 -64q124 0 212 114q87 115 87 287q0 106 -54 170t-132 63q-78 0 -133 -30q-111 -64 -157 -211q-24 -74 -24 -169zM66 428q0 118 44 235t124 203q168 181 432 183q192 0 316 -120t124 -311q0 -282 -168 -461q-168 -180 -432 -182q-98 0 -179 32
q-261 104 -261 421zM641 1473h231l162 -332h-186l-109 184l-176 -184h-209z" />
    <glyph glyph-name="otilde" unicode="&#xf5;" horiz-adv-x="1171" 
d="M336 419q0 -95 54 -160t147 -64q124 0 212 114q87 115 87 287q0 106 -54 170t-132 63q-78 0 -133 -30q-111 -64 -157 -211q-24 -74 -24 -169zM66 428q0 118 44 235t124 203q168 181 432 183q192 0 316 -120t124 -311q0 -282 -168 -461q-168 -180 -432 -182q-98 0 -179 32
q-261 104 -261 421zM610 1450q66 0 145 -58q29 -22 55 -39t56 -17t54 24q25 25 32 65h156q-16 -117 -84 -189t-153 -71q-85 0 -158 57q-29 22 -55 40t-56 18t-54 -25t-32 -65h-156q16 116 84 188t166 72z" />
    <glyph glyph-name="odieresis" unicode="&#xf6;" horiz-adv-x="1171" 
d="M336 419q0 -95 54 -160t147 -64q124 0 212 114q87 115 87 287q0 106 -54 170t-132 63q-78 0 -133 -30q-111 -64 -157 -211q-24 -74 -24 -169zM66 428q0 118 44 235t124 203q168 181 432 183q192 0 316 -120t124 -311q0 -282 -168 -461q-168 -180 -432 -182q-98 0 -179 32
q-261 104 -261 421zM805 1298q0 62 46 107q45 45 107 45t98 -35t36 -97t-45 -109q-45 -46 -107 -46t-99 36q-36 37 -36 99zM371 1298q0 62 46 107t108 45q63 0 99 -35t36 -97t-47 -109q-46 -46 -107 -46t-98 36q-37 37 -37 99z" />
    <glyph glyph-name="divide" unicode="&#xf7;" horiz-adv-x="1153" 
d="M446 962q0 64 39 103t103 39t104.5 -39t40.5 -103t-40.5 -104.5t-104.5 -40.5t-103 40.5t-39 104.5zM76 690h1026v-227h-1026v227zM446 192.5q0 63.5 39 103.5t103 40t104.5 -40t40.5 -103.5t-40.5 -103.5t-104.5 -40t-103 40t-39 103.5z" />
    <glyph glyph-name="oslash" unicode="&#xf8;" horiz-adv-x="1171" 
d="M324 440q0 -68 14 -102l424 457q-52 41 -120 41t-124.5 -33t-99.5 -88.5t-68.5 -131t-25.5 -143.5zM822.5 441.5q25.5 74.5 25.5 138.5t-14 106l-424 -455q52 -43 120 -43t124.5 33t99.5 89.5t68.5 131zM66 389q0 147 45 267t124.5 207t191 136.5t253.5 49.5t248 -76
l49 51h172l-127 -135q84 -109 84 -254q0 -287 -171.5 -473.5t-428.5 -186.5q-150 0 -262 78l-49 -53h-172l127 137q-84 105 -84 252z" />
    <glyph glyph-name="ugrave" unicode="&#xf9;" horiz-adv-x="1171" 
d="M100 272q0 55 11 117l120 635h263l-115 -621q-6 -29 -6 -77t37 -84t95 -37q110 0 222 106l135 713h262l-192 -1024h-250l16 90q-151 -115 -289 -115t-225 85q-84 86 -84 212zM449 1473h225l164 -332h-193z" />
    <glyph glyph-name="uacute" unicode="&#xfa;" horiz-adv-x="1171" 
d="M100 272q0 55 11 117l120 635h263l-115 -621q-6 -29 -6 -77t37 -84t95 -37q110 0 222 106l135 713h262l-192 -1024h-250l16 90q-151 -115 -289 -115t-225 85q-84 86 -84 212zM831 1473h261l-320 -332h-223z" />
    <glyph glyph-name="ucircumflex" unicode="&#xfb;" horiz-adv-x="1171" 
d="M100 272q0 55 11 117l120 635h263l-115 -621q-6 -29 -6 -77t37 -84t95 -37q110 0 222 106l135 713h262l-192 -1024h-250l16 90q-151 -115 -289 -115t-225 85q-84 86 -84 212zM637 1473h231l162 -332h-186l-109 184l-176 -184h-209z" />
    <glyph glyph-name="udieresis" unicode="&#xfc;" horiz-adv-x="1171" 
d="M100 272q0 55 11 117l120 635h263l-115 -621q-6 -29 -6 -77t37 -84t95 -37q110 0 222 106l135 713h262l-192 -1024h-250l16 90q-151 -115 -289 -115t-225 85q-84 86 -84 212zM801 1298q0 62 46 107q45 45 107 45t98 -35t36 -97t-46 -109q-45 -46 -107 -46t-98 36
q-36 37 -36 99zM367 1298q0 62 46 107t108 45q63 0 99 -35t36 -97t-47 -109q-46 -46 -107 -46t-99 36q-36 37 -36 99z" />
    <glyph glyph-name="yacute" unicode="&#xfd;" horiz-adv-x="1026" 
d="M270 -449h-270l297 490l-188 983h249l109 -678l356 678h283zM756 1473h260l-320 -332h-223z" />
    <glyph glyph-name="thorn" unicode="&#xfe;" horiz-adv-x="1171" 
d="M836 610q0 96 -49.5 154.5t-144.5 58.5t-196 -94l-86 -453q88 -76 185 -75q126 0 208.5 115.5t82.5 293.5zM737 1049q160 0 264.5 -114t104.5 -302q0 -284 -152 -471t-384 -187q-122 0 -248 93l-97 -517h-262l361 1922h262l-94 -508q119 84 245 84z" />
    <glyph glyph-name="ydieresis" unicode="&#xff;" horiz-adv-x="1026" 
d="M270 -449h-270l297 490l-188 983h249l109 -678l356 678h283zM725 1298q0 62 46 107q45 45 107 45t98 -35t36 -97t-45 -109q-45 -46 -107 -46t-99 36q-36 37 -36 99zM291 1298q0 62 46 107q47 45 109 45t98 -35t36 -97t-46 -109q-46 -46 -108 -46t-98 36q-37 37 -37 99z
" />
    <glyph glyph-name="dotlessi" unicode="&#x131;" horiz-adv-x="548" 
d="M240 1024h262l-193 -1024h-262z" />
    <glyph glyph-name="OE" unicode="&#x152;" horiz-adv-x="1906" 
d="M899 1190q-225 0 -367.5 -173t-142.5 -446q0 -162 95.5 -257t263.5 -95h149l180 971h-178zM702 0q-264 0 -425.5 153.5t-161.5 395.5q0 396 219.5 628t585.5 232h1036l-39 -219h-569l-70 -367h489l-41 -215h-487l-74 -389h584l-41 -219h-1006z" />
    <glyph glyph-name="oe" unicode="&#x153;" horiz-adv-x="1812" 
d="M336 419q0 -95 54 -159.5t132 -64.5q142 0 228 115.5t86 285.5q0 106 -54 169.5t-132 63.5t-132.5 -30.5t-94.5 -83.5t-63.5 -127t-23.5 -169zM1524 668q0 80 -45 129t-127 49t-154 -62.5t-98 -173.5h418q6 31 6 58zM66 401q0 282 169.5 465t430.5 183q104 0 193 -41
t145 -121q150 162 378 162q167 0 274 -109t107 -285q0 -109 -26 -215h-668l-2 -30q0 -104 69.5 -168t201.5 -64t298 94l-41 -225q-171 -72 -313 -72q-253 0 -373 170q-166 -170 -403 -170q-189 0 -314.5 119.5t-125.5 306.5z" />
    <glyph glyph-name="Scaron" unicode="&#x160;" horiz-adv-x="1116" 
d="M199 1005q0 191 143 310t355 119q211 0 411 -107l-41 -227q-182 119 -354 119q-111 1 -181 -53t-70 -128t41 -114q40 -41 99 -74t129 -67q268 -130 268 -367q0 -197 -146 -319t-367 -122q-220 0 -439 119l43 234q199 -137 385 -138q117 0 188 56t70 149q0 63 -40 107
q-64 70 -227 145q-267 128 -267 358zM868 1526h-231l-162 332h187l108 -185l176 185h207z" />
    <glyph glyph-name="scaron" unicode="&#x161;" horiz-adv-x="876" 
d="M387 740q0 -42 32 -69t116 -69q85 -43 127 -78q96 -81 96 -224q0 -144 -112 -234t-281 -90t-345 85l41 222q147 -100 285 -101q68 0 109 32t41 76t-34 77t-116 73t-123 74q-96 81 -96 217t110 227t278 91q167 0 316 -78l-38 -217q-143 88 -265 88q-63 0 -102 -30t-39 -72
zM682 1141h-231l-162 332h186l109 -185l176 185h207z" />
    <glyph glyph-name="Ydieresis" unicode="&#x178;" horiz-adv-x="1241" 
d="M489 598l-329 811h282l213 -582l428 582h322l-649 -836l-109 -573h-270zM899 1682q0 62 46 108q45 45 107 45t98 -35q36 -36 36 -98t-45 -108t-107 -46t-99 36q-36 36 -36 98zM465 1682q0 62 46 108q47 45 109 45t98 -35q36 -36 36 -98t-46 -108t-108 -46t-98 36
q-37 36 -37 98z" />
    <glyph glyph-name="Zcaron" unicode="&#x17d;" horiz-adv-x="1269" 
d="M18 180l920 1010h-692l43 219h1034l-35 -180l-917 -1010h741l-39 -219h-1087zM944 1526h-231l-162 332h186l109 -185l176 185h207z" />
    <glyph glyph-name="zcaron" unicode="&#x17e;" horiz-adv-x="989" 
d="M12 172l588 641h-440l41 211h778l-33 -172l-586 -641h480l-39 -211h-819zM731 1141h-231l-162 332h186l109 -185l176 185h207z" />
    <glyph glyph-name="florin" unicode="&#x192;" horiz-adv-x="1153" 
d="M887 1434q129 0 243 -52l-40 -213q-74 39 -136 39t-102.5 -33.5t-50.5 -91.5l-33 -170h242l-41 -211h-240l-125 -684q-27 -141 -122 -220t-228 -79t-240 52l39 213q75 -39 137 -39t102 33.5t50 91.5l119 632h-199l39 211h199l41 222q27 141 122 220t224 79z" />
    <glyph glyph-name="circumflex" unicode="&#x2c6;" 
d="M311 1473h232l162 -332h-187l-108 184l-177 -184h-208z" />
    <glyph glyph-name="caron" unicode="&#x2c7;" 
d="M494 1141h-232l-162 332h187l108 -185l176 185h207z" />
    <glyph glyph-name="ring" unicode="&#x2da;" 
d="M303 1301q0 -44 24.5 -69.5t68.5 -25.5t76 32t32 76t-24.5 69.5t-68.5 25.5t-76 -32t-32 -76zM417 1524q95 0 149.5 -55t54.5 -123q0 -121 -70 -188.5t-163 -67.5t-148.5 55t-55.5 148t69 162t164 69z" />
    <glyph glyph-name="tilde" unicode="&#x2dc;" 
d="M279 1280q-73 0 -93 -90h-155q16 117 83.5 188.5t166.5 71.5q62 0 118 -40t81.5 -57.5t55.5 -17.5t54 24.5t33 65.5h155q-16 -117 -83.5 -188.5t-151.5 -71.5t-136.5 39t-78 57.5t-49.5 18.5z" />
    <glyph glyph-name="endash" unicode="&#x2013;" horiz-adv-x="1024" 
d="M78 627h909l-41 -211h-907z" />
    <glyph glyph-name="emdash" unicode="&#x2014;" horiz-adv-x="2048" 
d="M78 627h1931l-39 -211h-1931z" />
    <glyph glyph-name="quoteleft" unicode="&#x2018;" 
d="M375 913h-266l305 496h231z" />
    <glyph glyph-name="quoteright" unicode="&#x2019;" 
d="M381 1409h264l-303 -496h-233z" />
    <glyph glyph-name="quotesinglbase" unicode="&#x201a;" 
d="M88 240h268l-305 -496h-233z" />
    <glyph glyph-name="quotedblleft" unicode="&#x201c;" horiz-adv-x="899" 
d="M375 913h-266l305 496h231zM762 913h-266l303 496h233z" />
    <glyph glyph-name="quotedblright" unicode="&#x201d;" horiz-adv-x="899" 
d="M766 1409h266l-303 -496h-233zM381 1409h264l-303 -496h-233z" />
    <glyph glyph-name="quotedblbase" unicode="&#x201e;" horiz-adv-x="899" 
d="M88 240h268l-305 -496h-233zM475 240h266l-303 -496h-233z" />
    <glyph glyph-name="dagger" unicode="&#x2020;" horiz-adv-x="940" 
d="M424 868h-315l41 226h315l59 315h228l-60 -315h314l-41 -226h-316l-162 -868h-225z" />
    <glyph glyph-name="daggerdbl" unicode="&#x2021;" horiz-adv-x="940" 
d="M319 315h-315l41 226h317l62 327h-315l41 226h315l59 315h228l-60 -315h314l-41 -226h-316l-61 -327h315l-43 -226h-315l-58 -315h-225z" />
    <glyph glyph-name="bullet" unicode="&#x2022;" horiz-adv-x="1024" 
d="M260 704.5q0 59.5 22.5 112.5t62.5 92t92 61.5t111.5 22.5t113 -22.5t92.5 -61.5t61.5 -92t22.5 -112.5t-22.5 -112.5t-61.5 -92t-92.5 -61.5t-113 -22.5t-111.5 22.5t-92 61.5t-62.5 92t-22.5 112.5z" />
    <glyph glyph-name="ellipsis" unicode="&#x2026;" horiz-adv-x="2050" 
d="M115 124q0 68 49.5 116.5t117.5 48.5t108 -38.5t40 -108.5t-49 -118.5t-119 -48.5t-108.5 40.5t-38.5 108.5zM799 124q0 68 47.5 116.5t117.5 48.5t109 -38.5t39 -108.5t-48 -118.5t-118 -48.5t-108.5 40.5t-38.5 108.5zM1483 124q0 68 47.5 116.5t117.5 48.5t109 -38.5
t39 -108.5t-48 -118.5t-118 -48.5t-108.5 40.5t-38.5 108.5z" />
    <glyph glyph-name="perthousand" unicode="&#x2030;" horiz-adv-x="2488" 
d="M1864 278q0 -66 37 -109.5t91 -43.5q97 0 158.5 88t61.5 209q0 72 -37 115t-91 43t-92 -24t-67 -63.5t-45 -94t-16 -120.5zM1681 246q0 213 118.5 348t293.5 135q133 0 218 -78.5t85 -192.5q0 -215 -119 -349t-295 -134q-133 0 -217 78.5t-84 192.5zM1450 1409h215
l-1313 -1409h-215zM348 988q0 -66 37 -111.5t91 -45.5q95 0 157.5 82.5t62.5 206.5q0 74 -36 119t-90 45t-93 -22.5t-67.5 -61.5t-45 -92.5t-16.5 -119.5zM166 990q0 80 31.5 165.5t118.5 182t264 96.5q130 0 214.5 -82.5t84.5 -195.5q0 -213 -118.5 -344.5t-293.5 -131.5
q-132 0 -216.5 82t-84.5 228zM1104 278q0 -66 38 -109.5t91 -43.5q98 0 159.5 88t61.5 209q0 72 -38 115t-91 43t-92 -24t-67.5 -63.5t-45 -94t-16.5 -120.5zM922 280q0 80 31.5 166t119 184.5t262.5 98.5q133 0 217 -80t84 -192q0 -214 -119 -348t-294 -134q-133 0 -217 80
t-84 225z" />
    <glyph glyph-name="guilsinglleft" unicode="&#x2039;" horiz-adv-x="847" 
d="M387 506l289 -432h-258l-338 444l483 432h295z" />
    <glyph glyph-name="guilsinglright" unicode="&#x203a;" horiz-adv-x="847" 
d="M459 518l-289 432h258l340 -444l-485 -432h-295z" />
    <glyph glyph-name="Euro" unicode="&#x20ac;" horiz-adv-x="1153" 
d="M920 1214q-136 0 -235 -70.5t-161 -191.5h437l-35 -178h-475q-16 -93 -21 -137h469l-33 -180h-428q23 -123 101.5 -192.5t212.5 -69.5t280 79l-43 -237q-421 -157 -612 25.5t-211 394.5h-156l35 180h123q6 72 18 137h-116l32 178h142q92 222 264.5 352t365.5 130t361 -91
l-41 -225q-138 96 -274 96z" />
    <glyph glyph-name="trademark" unicode="&#x2122;" horiz-adv-x="1822" 
d="M965 1409h165l252 -344l250 344h166v-831h-180v522l-178 -246h-115l-178 246v-522h-182v831zM373 1249h-242v160h680v-160h-244v-671h-194v671z" />
    <glyph glyph-name="uniE800" unicode="&#xe800;" 
d="M123 1858h225l164 -332h-193z" />
    <glyph glyph-name="uniE801" unicode="&#xe801;" 
d="M506 1858h260l-320 -332h-223z" />
    <glyph glyph-name="uniE802" unicode="&#xe802;" 
d="M311 1858h232l162 -332h-187l-108 184l-177 -184h-208z" />
    <glyph glyph-name="uniE803" unicode="&#xe803;" 
d="M494 1526h-232l-162 332h187l108 -185l176 185h207z" />
    <glyph glyph-name="uniE804" unicode="&#xe804;" 
d="M279 1665q-73 0 -93 -90h-155q16 117 83.5 188.5t166.5 71.5q62 0 118 -40t81.5 -57.5t55.5 -17.5t54 24.5t33 65.5h155q-16 -117 -83.5 -188.5t-151.5 -71.5t-136.5 39t-78 57.5t-49.5 18.5z" />
    <glyph glyph-name="uniE805" unicode="&#xe805;" 
d="M475 1682q0 62 45.5 107.5t107.5 45.5t98 -35.5t36 -97.5t-45 -108t-107 -46t-98.5 36t-36.5 98zM41 1682q0 62 46.5 107.5t108.5 45.5t98 -35.5t36 -97.5t-46 -108t-108 -46t-98.5 36t-36.5 98z" />
    <glyph glyph-name="uniE808" unicode="&#xe808;" 
d="M303 1686q0 -44 24.5 -69.5t68.5 -25.5t76 32t32 76t-24.5 69.5t-68.5 25.5t-76 -32t-32 -76zM417 1909q95 0 149.5 -54.5t54.5 -122.5q0 -121 -70 -189t-163 -68t-148.5 55t-55.5 148t69 162t164 69z" />
    </font>
</defs>
</svg>
