<?xml version="1.0" standalone="no"?>
<!DOCTYPE svg PUBLIC "-//W3C//DTD SVG 1.1//EN" "http://www.w3.org/Graphics/SVG/1.1/DTD/svg11.dtd" >
<svg xmlns="http://www.w3.org/2000/svg">
<metadata>
Created by FontPrep 20130207 at Thu Jan 26 15:25:43 2017
 By Callum Flack
Copyright 2010 Monotype Imaging Inc. All rights reserved. Designed by Nick Job.
</metadata>
<defs>
<font id="66b26cd32c823d8af308bb00c3c22db7" horiz-adv-x='1024' >
  <font-face 
    font-family="CamphorW01-ThinItalic"
    font-weight="400"
    font-style="italic"
    font-stretch="normal"
    units-per-em="2048"
    panose-1="2 11 2 4 3 4 4 9 2 4"
    ascent="1505"
    descent="-543"
    x-height="1024"
    cap-height="1409"
    bbox="-377 -512 2349 1898"
    underline-thickness="126"
    underline-position="-256"
    unicode-range="U+0020-E808"
  />
<missing-glyph horiz-adv-x="512" 
 />
    <glyph glyph-name=".notdef" horiz-adv-x="512" 
 />
    <glyph glyph-name=".null" horiz-adv-x="0" 
 />
    <glyph glyph-name="nonmarkingreturn" horiz-adv-x="681" 
 />
    <glyph glyph-name="space" unicode=" " horiz-adv-x="512" 
 />
    <glyph glyph-name="exclam" unicode="!" horiz-adv-x="512" 
d="M96 51q0 35 24.5 59.5t59.5 24.5t55.5 -19.5t20.5 -54.5t-24.5 -60.5t-59.5 -25.5t-55.5 20.5t-20.5 55.5zM375 1409h100l-192 -1024h-101z" />
    <glyph glyph-name="quotedbl" unicode="&#x22;" horiz-adv-x="833" 
d="M379 1409h88l-78 -416h-88zM700 1409h88l-77 -416h-88z" />
    <glyph glyph-name="numbersign" unicode="#" 
d="M360 512h381l121 385h-381zM35 512h235l121 385h-225l16 88h236l133 424h92l-133 -424h381l133 424h92l-133 -424h223l-14 -88h-238l-118 -385h223l-17 -88h-235l-131 -424h-92l131 424h-379l-133 -424h-92l131 424h-224z" />
    <glyph glyph-name="dollar" unicode="$" 
d="M836 397q0 78 -40 128t-99.5 89t-130 72t-130 77t-99.5 103.5t-40 142.5q0 158 112.5 256.5t282.5 102.5l58 297h88l-58 -301q128 -16 269 -94l-23 -101q-170 113 -309 113t-227.5 -71t-88.5 -187q0 -74 40 -122t99.5 -86t129 -71.5t169 -107t99.5 -230.5t-113 -259.5
t-293 -106.5l-55 -297h-88l55 301q-143 14 -301 107l23 104q180 -127 332 -127t245 76t93 192z" />
    <glyph glyph-name="percent" unicode="%" horiz-adv-x="1730" 
d="M1503 1409h109l-1313 -1409h-111zM283 968q0 -89 51.5 -149.5t125.5 -60.5q134 0 218 110.5t84 268.5q0 100 -52 160.5t-126 60.5t-126 -30t-91 -81t-61.5 -120.5t-22.5 -158.5zM190 984q0 80 30 165.5t113 185t247 99.5q118 0 196 -82t78 -192q0 -211 -113 -345.5
t-274 -134.5q-119 0 -198 83.5t-79 220.5zM1038 262q0 -90 54 -150.5t126 -60.5q134 0 218 112t84 269q0 100 -54 160.5t-126 60.5t-125.5 -29.5t-92.5 -80.5t-61.5 -121t-22.5 -160zM946 278q0 80 30 166t113 185.5t246 99.5q119 0 198 -83t79 -192q0 -208 -113 -343.5
t-276 -135.5q-119 0 -198 83t-79 220z" />
    <glyph glyph-name="ampersand" unicode="&#x26;" horiz-adv-x="1265" 
d="M197 338q0 -124 84 -199.5t220 -75.5t277 62l105 549h-226q-208 0 -301.5 -69.5t-126 -134t-32.5 -132.5zM192.5 587q104.5 115 264.5 146q-92 41 -146.5 122t-54.5 172q0 178 127.5 292.5t301.5 114.5t339 -88l-16 -97q-162 97 -308 97t-240.5 -90.5t-94.5 -216.5
t91.5 -203.5t231.5 -77.5h578l-17 -84h-264l-113 -602q-186 -96 -391 -97q-164 0 -278.5 101.5t-114.5 248.5t104.5 262z" />
    <glyph glyph-name="quotesingle" unicode="'" horiz-adv-x="512" 
d="M379 1409h88l-78 -416h-88z" />
    <glyph glyph-name="parenleft" unicode="(" horiz-adv-x="641" 
d="M160 367q0 337 127 618t370 488h127q-254 -207 -387 -482.5t-133 -589.5q0 -379 168 -720h-104q-168 349 -168 686z" />
    <glyph glyph-name="parenright" unicode=")" horiz-adv-x="641" 
d="M496 790q0 -340 -126 -621.5t-370 -487.5h-129q254 207 388 482t134 591q0 375 -170 719h105q168 -343 168 -683z" />
    <glyph glyph-name="asterisk" unicode="*" horiz-adv-x="897" 
d="M930 1069v-88h-324l101 -309l-84 -27l-101 309l-264 -192l-51 72l262 190l-262 193l51 71l264 -190l101 307l84 -27l-101 -309h324z" />
    <glyph glyph-name="plus" unicode="+" 
d="M76 621h469v469h88v-469h469v-89h-469v-469h-88v469h-469v89z" />
    <glyph glyph-name="comma" unicode="," horiz-adv-x="512" 
d="M143 129h113l-231 -385h-97z" />
    <glyph glyph-name="hyphen" unicode="-" horiz-adv-x="641" 
d="M88 561h481l-16 -80h-481z" />
    <glyph glyph-name="period" unicode="." horiz-adv-x="512" 
d="M96 51q0 35 24.5 59.5t59.5 24.5t55.5 -19.5t20.5 -54.5t-24.5 -60.5t-59.5 -25.5t-55.5 20.5t-20.5 55.5z" />
    <glyph glyph-name="slash" unicode="/" horiz-adv-x="768" 
d="M733 1473h109l-787 -1792h-106z" />
    <glyph glyph-name="zero" unicode="0" 
d="M213 486q0 -190 81 -306.5t214 -116.5q102 0 194.5 67t202 251.5t109.5 523.5q0 209 -82 325t-215 116q-102 0 -193.5 -68t-161 -182.5t-109.5 -267t-40 -342.5zM104 524q0 160 47.5 334t131.5 302t196.5 201t224.5 73q204 0 310 -136t106 -353q0 -218 -47 -392
t-131 -303t-197 -202t-225 -73t-185 35t-124 100.5t-79 159.5t-28 254z" />
    <glyph glyph-name="one" unicode="1" 
d="M778 1290l-413 -200l20 108l440 211h80l-264 -1409h-104z" />
    <glyph glyph-name="two" unicode="2" 
d="M934 1092q0 110 -70.5 182t-191.5 72q-186 0 -373 -129l20 116q172 101 344 101t274.5 -91.5t102.5 -220.5t-54 -242.5t-205 -289t-580 -502.5h688l-17 -88h-831l16 88q456 340 611 510t210.5 277t55.5 217z" />
    <glyph glyph-name="three" unicode="3" 
d="M520 758q174 0 290 99t116 241q0 107 -79 177.5t-219 70.5q-139 0 -311 -89l19 105q160 72 321 72t268 -91.5t107 -230.5t-95 -251.5t-241 -147.5q111 -29 175.5 -114t64.5 -189q0 -197 -142.5 -316t-361.5 -119q-175 0 -369 113l21 100q174 -125 348 -125t285.5 94
t111.5 229t-96 211.5t-244 76.5h-65l16 84h80z" />
    <glyph glyph-name="four" unicode="4" 
d="M735 500l135 729l-669 -729h534zM719 416h-660l17 80l842 913h92l-170 -909h229l-16 -84h-230l-78 -416h-104z" />
    <glyph glyph-name="five" unicode="5" 
d="M852 433q0 155 -90 240t-224 85t-278 -33l129 684h688l-16 -88h-592l-92 -490q206 34 346.5 -21t189 -160.5t48.5 -199.5t-39 -184t-148 -190.5t-342 -100.5q-172 0 -340 105l21 104q160 -121 326 -121t289.5 107.5t123.5 262.5z" />
    <glyph glyph-name="six" unicode="6" 
d="M236 384q0 -138 79.5 -229.5t224.5 -91.5t261.5 126t116.5 275q0 148 -80.5 234t-188.5 86q-205 0 -368 -151q-45 -111 -45 -249zM336 768q145 104 311 104t271.5 -106.5t105.5 -269.5q0 -213 -146.5 -367t-357.5 -154q-173 0 -282 112.5t-109 297.5q0 266 175 529.5
t505 494.5h168q-471 -313 -641 -641z" />
    <glyph glyph-name="seven" unicode="7" 
d="M1006 1321h-717l16 88h840l-12 -68l-824 -1341h-121z" />
    <glyph glyph-name="eight" unicode="8" 
d="M442.5 828.5q73.5 -68.5 205.5 -68.5t234.5 96.5t102.5 224.5t-73.5 196.5t-205.5 68.5t-234.5 -96t-102.5 -224q0 -129 73.5 -197.5zM294.5 138.5q81.5 -75.5 228.5 -75.5t258.5 98t111.5 247q0 115 -83 189.5t-210 74.5q-167 0 -277 -97t-110 -229t81.5 -207.5z
M260 1009q0 181 135 303t334 122q154 0 259.5 -92.5t105.5 -231.5t-84 -242.5t-234 -150.5q106 -41 165.5 -121t59.5 -179q0 -194 -143 -318t-362 -124q-160 0 -276 98.5t-116 242.5q0 145 93.5 256.5t259.5 152.5q-94 35 -145.5 113t-51.5 171z" />
    <glyph glyph-name="nine" unicode="9" 
d="M989 1026q0 138 -79 229t-223 91t-261 -124.5t-117 -291.5q0 -130 79 -217.5t204 -87.5q189 0 352 151q45 112 45 250zM889 641q-141 -104 -310 -104t-273.5 106.5t-104.5 269.5q0 213 146.5 367t357.5 154q172 0 282.5 -112.5t110.5 -297.5q0 -266 -176.5 -528.5
t-505.5 -495.5h-168q473 317 641 641z" />
    <glyph glyph-name="colon" unicode=":" horiz-adv-x="512" 
d="M256 965q0 35 25.5 59.5t60.5 24.5t54.5 -19.5t19.5 -54.5t-24.5 -60.5t-59.5 -25.5t-55.5 20.5t-20.5 55.5zM96 51q0 35 24.5 59.5t59.5 24.5t55.5 -19.5t20.5 -54.5t-24.5 -60.5t-59.5 -25.5t-55.5 20.5t-20.5 55.5z" />
    <glyph glyph-name="semicolon" unicode=";" horiz-adv-x="512" 
d="M256 965q0 35 25.5 59.5t60.5 24.5t54.5 -19.5t19.5 -54.5t-24.5 -60.5t-59.5 -25.5t-55.5 20.5t-20.5 55.5zM143 129h113l-231 -385h-97z" />
    <glyph glyph-name="less" unicode="&#x3c;" 
d="M76 541v71l1026 445v-96l-889 -383l889 -385v-97z" />
    <glyph glyph-name="equal" unicode="=" 
d="M76 821h1026v-88h-1026v88zM76 420h1026v-88h-1026v88z" />
    <glyph glyph-name="greater" unicode="&#x3e;" 
d="M1102 612v-71l-1026 -445v97l889 385l-889 383v96z" />
    <glyph glyph-name="question" unicode="?" horiz-adv-x="897" 
d="M231 51q0 35 26.5 59.5t60.5 24.5t54.5 -19.5t20.5 -54.5t-25.5 -60.5t-60.5 -25.5t-55.5 20.5t-20.5 55.5zM772 1136q0 88 -64.5 151t-156.5 63q-174 0 -342 -133l22 120q149 97 308 97t250.5 -87.5t91.5 -226.5q0 -140 -76 -227.5t-131.5 -135.5t-142.5 -132.5
t-117 -212.5l-6 -27h-97l8 43q35 192 205.5 333t209 214t38.5 161z" />
    <glyph glyph-name="at" unicode="@" horiz-adv-x="1953" 
d="M692 394q0 -118 62.5 -191.5t183.5 -73.5t246 123l104 541q-109 104 -235 104q-155 0 -258 -140.5t-103 -362.5zM1066 981q118 0 237 -102l14 82h100l-125 -672q-6 -25 -6 -61t35 -67.5t97 -31.5t127 45t142.5 171.5t77.5 398.5t-179 439t-472 167q-199 0 -365.5 -76
t-287.5 -210t-188.5 -316t-67.5 -366q0 -334 186.5 -521t497.5 -187q213 0 465 133l-19 -100q-236 -117 -432 -117q-370 0 -586.5 208.5t-216.5 545.5q0 238 76 437.5t212 345t323 226.5t379 81q355 0 567.5 -194t212.5 -492t-101.5 -446t-187.5 -202.5t-184 -54.5
q-152 0 -199 119q-140 -119 -287 -119t-235 95.5t-88 238.5t33.5 250.5t95 186.5t146.5 122t203 43z" />
    <glyph glyph-name="A" unicode="A" horiz-adv-x="1249" 
d="M375 528h545l-140 721zM766 1409h78l280 -1409h-102l-86 444h-610l-250 -444h-113z" />
    <glyph glyph-name="B" unicode="B" horiz-adv-x="1193" 
d="M649 758q160 0 266.5 95t106.5 237q0 104 -77 169.5t-200 65.5h-272l-106 -567h282zM776 1409q157 0 254.5 -84.5t97.5 -226.5q0 -200 -109.5 -278.5t-170.5 -98.5q94 -29 151.5 -106t57.5 -177q0 -195 -141 -316.5t-359 -121.5h-436l264 1409h391zM557 84
q176 0 283.5 96t107.5 248q0 115 -77.5 180.5t-213.5 65.5h-307l-110 -590h317z" />
    <glyph glyph-name="C" unicode="C" horiz-adv-x="1224" 
d="M135 564q0 159 56.5 325t157 286.5t239 189.5t322.5 69t360 -121l-21 -105q-174 137 -360 138q-137 0 -255 -61.5t-254 -229.5t-136 -510q0 -217 119.5 -349.5t316.5 -132.5t377 113l-21 -113q-164 -88 -364 -88q-237 0 -347 114t-150 215t-40 260z" />
    <glyph glyph-name="D" unicode="D" horiz-adv-x="1378" 
d="M528 84q305 0 490.5 212.5t185.5 567.5q0 217 -129 339t-362 122h-240l-233 -1241h288zM737 1409q255 0 415.5 -147t160.5 -366q0 -426 -214 -661t-579 -235h-399l262 1409h354z" />
    <glyph glyph-name="E" unicode="E" horiz-adv-x="1105" 
d="M385 1409h760l-17 -84h-655l-106 -567h575l-14 -84h-578l-110 -590h671l-14 -84h-776z" />
    <glyph glyph-name="F" unicode="F" horiz-adv-x="1056" 
d="M385 1409h760l-17 -84h-655l-111 -588h576l-14 -84h-578l-123 -653h-102z" />
    <glyph glyph-name="G" unicode="G" horiz-adv-x="1337" 
d="M244 545q0 -220 123 -351t307 -131t348 76l90 482h-346l16 84h449l-117 -625q-215 -104 -446 -104t-382 156t-151 396q0 195 56.5 361t158 286.5t241.5 189.5t306 69q208 0 395 -134l-18 -102q-185 148 -377 148q-139 0 -258 -61.5t-257 -230t-138 -509.5z" />
    <glyph glyph-name="H" unicode="H" horiz-adv-x="1441" 
d="M385 1409h104l-122 -651h800l123 651h103l-265 -1409h-104l127 674h-801l-127 -674h-102z" />
    <glyph glyph-name="I" unicode="I" horiz-adv-x="536" 
d="M385 1409h104l-266 -1409h-102z" />
    <glyph glyph-name="J" unicode="J" horiz-adv-x="929" 
d="M-8 63l20 101q146 -100 270 -100t199.5 67.5t98.5 187.5l204 1090h105l-207 -1104q-27 -149 -136.5 -239.5t-255.5 -90.5q-145 0 -298 88z" />
    <glyph glyph-name="K" unicode="K" horiz-adv-x="1185" 
d="M385 1409h104l-127 -668l766 668h162l-817 -696l576 -713h-131l-564 692l-131 -692h-102z" />
    <glyph glyph-name="L" unicode="L" horiz-adv-x="993" 
d="M385 1409h104l-249 -1325h624l-16 -84h-727z" />
    <glyph glyph-name="M" unicode="M" horiz-adv-x="1634" 
d="M385 1409h88l361 -752l643 752h108l-264 -1409h-104l231 1229l-592 -692h-72l-331 688l-230 -1225h-102z" />
    <glyph glyph-name="N" unicode="N" horiz-adv-x="1441" 
d="M385 1409h88l588 -1225l229 1225h103l-265 -1409h-88l-587 1225l-230 -1225h-102z" />
    <glyph glyph-name="O" unicode="O" horiz-adv-x="1441" 
d="M244 574q0 -252 112.5 -381.5t300.5 -129.5q127 0 239 62.5t195 170t131 254t48 286.5q0 250 -112.5 380t-301.5 130q-127 0 -238.5 -62.5t-194.5 -170t-131 -253.5t-48 -286zM135 562q0 161 55.5 327t152.5 286.5t230.5 189.5t270.5 69q254 0 394 -150t140 -403
q0 -195 -55 -361t-152.5 -286.5t-232 -189.5t-270.5 -69t-231 39t-162.5 112t-103.5 174t-36 262z" />
    <glyph glyph-name="P" unicode="P" 
d="M600 645q198 0 321 110t123 285q0 133 -89 209t-242 76h-240l-127 -680h254zM745 1409q182 0 295 -95.5t113 -256.5q0 -218 -156 -357t-397 -139h-270l-107 -561h-102l264 1409h360z" />
    <glyph glyph-name="Q" unicode="Q" horiz-adv-x="1441" 
d="M244 574q0 -252 112.5 -381.5t300.5 -129.5q127 0 239 62.5t195 170t131 254t48 286.5q0 250 -112.5 380t-301.5 130q-127 0 -238.5 -62.5t-194.5 -170t-131 -253.5t-48 -286zM135 528q0 195 55.5 361t152.5 286.5t230.5 189.5t270.5 69q254 0 394 -150t140 -411
q0 -260 -104.5 -474.5t-290.5 -330.5l219 -277h-129l-178 234q-124 -50 -243 -50q-237 0 -377 151t-140 402z" />
    <glyph glyph-name="R" unicode="R" horiz-adv-x="1185" 
d="M592 662q195 0 315.5 109t120.5 278q0 127 -87 201.5t-236 74.5h-232l-127 -663h246zM737 1409q182 0 291 -93t109 -263t-119.5 -305.5t-312.5 -163.5l272 -584h-113l-268 578h-266l-107 -578h-102l264 1409h352z" />
    <glyph glyph-name="S" unicode="S" horiz-adv-x="1073" 
d="M821 360q0 86 -44 142.5t-109.5 100.5t-143.5 81t-143.5 85t-109.5 113.5t-44 157.5q0 175 127.5 284.5t314.5 109.5q188 0 380 -109l-21 -104q-180 125 -342 125t-258 -79.5t-96 -205.5q0 -84 44 -138.5t109.5 -96.5t143.5 -79.5t187.5 -118.5t109.5 -256t-131 -286
t-327 -111t-405 125l21 109q199 -146 366 -146q168 0 269.5 83t101.5 214z" />
    <glyph glyph-name="T" unicode="T" 
d="M676 1325h-467l14 84h1043l-17 -84h-469l-248 -1325h-104z" />
    <glyph glyph-name="U" unicode="U" horiz-adv-x="1441" 
d="M199 393q0 58 14 144l164 872h104l-164 -872q-14 -82 -14 -145q0 -139 100.5 -234t266.5 -95q167 0 292 110t160 300l174 936h105l-176 -944q-47 -231 -200 -360.5t-369 -129.5q-198 0 -327.5 119t-129.5 299z" />
    <glyph glyph-name="V" unicode="V" horiz-adv-x="1249" 
d="M555 0h-76l-282 1409h104l240 -1249l704 1249h113z" />
    <glyph glyph-name="W" unicode="W" horiz-adv-x="2017" 
d="M1389 0h-93l-163 1257l-637 -1257h-93l-194 1409h100l164 -1257l637 1257h92l164 -1257l637 1257h111z" />
    <glyph glyph-name="X" unicode="X" horiz-adv-x="1249" 
d="M584 721l-344 688h120l302 -608l516 608h135l-600 -696l356 -713h-121l-311 633l-541 -633h-137z" />
    <glyph glyph-name="Y" unicode="Y" 
d="M532 621l-344 788h113l295 -696l557 696h129l-645 -797l-117 -612h-104z" />
    <glyph glyph-name="Z" unicode="Z" horiz-adv-x="1224" 
d="M12 84l1121 1241h-844l16 84h969l-17 -84l-1122 -1241h897l-14 -84h-1022z" />
    <glyph glyph-name="bracketleft" unicode="[" horiz-adv-x="641" 
d="M420 1473h338l-17 -80h-231l-307 -1633h233l-16 -79h-336z" />
    <glyph glyph-name="backslash" unicode="\" horiz-adv-x="768" 
d="M195 1473h100l350 -1792h-98z" />
    <glyph glyph-name="bracketright" unicode="]" horiz-adv-x="641" 
d="M244 -319h-336l14 79h234l305 1633h-232l15 80h336z" />
    <glyph glyph-name="asciicircum" unicode="^" 
d="M578 1409h71l445 -1024h-97l-385 889l-385 -889h-94z" />
    <glyph glyph-name="underscore" unicode="_" horiz-adv-x="1024" 
d="M-137 -217h1024l-17 -80h-1024z" />
    <glyph glyph-name="grave" unicode="`" horiz-adv-x="512" 
d="M201 1473h110l146 -287h-88z" />
    <glyph glyph-name="a" unicode="a" horiz-adv-x="1105" 
d="M193 376q0 -140 73.5 -228.5t211.5 -88.5t292 150l121 633q-133 123 -275 123q-181 0 -302 -162t-121 -427zM88 359q0 313 149.5 501.5t378.5 188.5q150 0 291 -119l19 94h100l-192 -1024h-101l17 96q-144 -121 -301 -121t-259 109.5t-102 274.5z" />
    <glyph glyph-name="b" unicode="b" horiz-adv-x="1105" 
d="M913 650q0 140 -73.5 227.5t-212.5 87.5t-293 -148l-119 -633q131 -125 274 -125q183 0 303.5 164t120.5 427zM356 930q137 119 296 119t262.5 -109t103.5 -273q0 -314 -149.5 -503t-379.5 -189q-153 0 -290 121l-19 -96h-100l276 1473h101z" />
    <glyph glyph-name="c" unicode="c" horiz-adv-x="944" 
d="M88 412q0 116 42 237t159.5 260.5t359.5 139.5q154 0 285 -88l-19 -97q-129 100 -266 101q-194 0 -325 -161.5t-131 -402.5q0 -154 84.5 -248t225.5 -94t279 84l-20 -102q-127 -66 -289 -66t-273.5 114.5t-111.5 322.5z" />
    <glyph glyph-name="d" unicode="d" horiz-adv-x="1105" 
d="M193 376q0 -140 73.5 -228.5t211.5 -88.5t292 150l121 633q-133 123 -275 123q-181 0 -302 -162t-121 -427zM88 359q0 313 149.5 501.5t378.5 188.5q150 0 291 -119l103 543h100l-276 -1473h-101l17 96q-144 -121 -301 -121t-259 109.5t-102 274.5z" />
    <glyph glyph-name="e" unicode="e" horiz-adv-x="1009" 
d="M840 680q0 127 -64.5 206t-171.5 79q-141 0 -245.5 -102.5t-145.5 -284.5h618q9 65 9 102zM940 680q0 -88 -18 -184h-723q-6 -44 -6 -104t22.5 -124.5t88 -136.5t212.5 -72q146 0 293 101l-21 -113q-143 -72 -308 -72t-278.5 118t-113.5 282q0 309 147.5 491.5
t380.5 182.5q142 0 233 -99.5t91 -269.5z" />
    <glyph glyph-name="f" unicode="f" horiz-adv-x="737" 
d="M701 1413q-87 0 -140 -47t-69 -133l-39 -209h331l-14 -80h-332l-231 -1233h-101l232 1233h-209l14 80h209l41 225q23 115 101 181.5t188 66.5t227 -63l-18 -88q-103 67 -190 67z" />
    <glyph glyph-name="g" unicode="g" horiz-adv-x="1105" 
d="M193 376q0 -140 73.5 -228.5t211.5 -88.5t292 150l121 633q-133 123 -275 123q-181 0 -302 -162t-121 -427zM88 359q0 313 149.5 501.5t378.5 188.5q150 0 291 -119l19 94h100l-205 -1087q-37 -193 -158 -301.5t-297 -108.5t-341 88l18 96q160 -100 307 -100t246.5 92
t128.5 250l25 143q-144 -121 -301 -121t-259 109.5t-102 274.5z" />
    <glyph glyph-name="h" unicode="h" horiz-adv-x="1105" 
d="M954.5 881q22.5 -51 22.5 -97t-12 -118l-123 -666h-101l123 666q10 45 10 88q0 96 -59 153.5t-147 57.5q-167 0 -338 -162l-150 -803h-100l276 1473h101l-105 -560q160 135 328 136q126 0 189 -58.5t85.5 -109.5z" />
    <glyph glyph-name="i" unicode="i" horiz-adv-x="452" 
d="M372 1257q-66 0 -67 67q0 32 22.5 54.5t54.5 22.5q67 0 67 -67q0 -32 -22.5 -54.5t-54.5 -22.5zM272 1024h101l-193 -1024h-100z" />
    <glyph glyph-name="j" unicode="j" horiz-adv-x="452" 
d="M372 1257q-66 0 -67 67q0 32 22.5 54.5t54.5 22.5q67 0 67 -67q0 -32 -22.5 -54.5t-54.5 -22.5zM-152 -473q-110 0 -225 65l19 89q104 -70 190 -70t139.5 47t69.5 133l231 1233h101l-234 -1247q-23 -117 -102 -183.5t-189 -66.5z" />
    <glyph glyph-name="k" unicode="k" horiz-adv-x="929" 
d="M356 1473h101l-174 -922l534 473h144l-584 -508l407 -516h-122l-390 492l-92 -492h-100z" />
    <glyph glyph-name="l" unicode="l" horiz-adv-x="452" 
d="M356 1473h101l-277 -1473h-100z" />
    <glyph glyph-name="m" unicode="m" horiz-adv-x="1697" 
d="M666 1049q92 0 164.5 -46.5t103.5 -121.5q177 168 358 168q121 0 200 -79t79 -194q0 -34 -10 -96l-127 -680h-101l129 680q8 40 8 84q0 88 -55 144.5t-137 56.5q-166 0 -322 -160l-149 -805h-100l129 680q8 40 8 84q0 88 -55.5 144.5t-137.5 56.5q-157 0 -321 -160
l-150 -805h-100l192 1024h101l-21 -106q150 131 314 131z" />
    <glyph glyph-name="n" unicode="n" horiz-adv-x="1105" 
d="M954.5 881q22.5 -51 22.5 -97t-12 -118l-123 -666h-101l123 666q10 47 10 88q0 98 -59 154.5t-158 56.5q-158 0 -327 -164l-150 -801h-100l192 1024h101l-21 -111q160 135 328 136q126 0 189 -58.5t85.5 -109.5z" />
    <glyph glyph-name="o" unicode="o" horiz-adv-x="1105" 
d="M193 380q0 -138 77.5 -229.5t210.5 -91.5q181 0 306.5 165t125.5 401q0 158 -77.5 249t-210.5 91q-181 0 -306.5 -165.5t-125.5 -419.5zM88 385q0 289 152.5 476.5t392.5 187.5q174 0 279.5 -111t105.5 -297q0 -292 -154 -479t-391 -187q-178 0 -281.5 111t-103.5 299z
" />
    <glyph glyph-name="p" unicode="p" horiz-adv-x="1105" 
d="M913 650q0 140 -73.5 227.5t-212.5 87.5t-293 -148l-119 -633q131 -125 274 -125q183 0 303.5 164t120.5 427zM356 930q137 119 296 119t262.5 -109t103.5 -273q0 -314 -149.5 -503t-379.5 -189q-153 0 -290 121l-103 -545h-100l276 1473h101z" />
    <glyph glyph-name="q" unicode="q" horiz-adv-x="1105" 
d="M193 376q0 -140 73.5 -228.5t211.5 -88.5t292 150l121 633q-133 123 -275 123q-181 0 -302 -162t-121 -427zM88 359q0 313 149.5 501.5t378.5 188.5q150 0 291 -119l19 94h100l-276 -1473h-101l101 545q-144 -121 -301 -121t-259 109.5t-102 274.5z" />
    <glyph glyph-name="r" unicode="r" horiz-adv-x="753" 
d="M272 1024h101l-23 -119q147 143 307 144q74 0 127 -31l-18 -96q-126 75 -245.5 11.5t-192.5 -149.5l-148 -784h-100z" />
    <glyph glyph-name="s" unicode="s" horiz-adv-x="833" 
d="M325 59q122 0 190.5 56.5t68.5 150.5t-79 146.5t-214 116t-135 231.5q0 127 96 208t238 81t282 -80l-16 -97q-136 92 -250 92t-182 -54t-68 -142q0 -57 31.5 -95t79 -68t103.5 -57.5t135 -86.5t79 -189t-96 -213.5t-245 -83.5t-306 93l18 100q148 -109 270 -109z" />
    <glyph glyph-name="t" unicode="t" horiz-adv-x="817" 
d="M305 209q0 -70 44 -110t122 -40t193 62l-19 -105q-101 -41 -203 -41t-169.5 60.5t-67.5 165.5q0 38 8 80l125 663h-209l14 80h209l54 289h100l-53 -289h381l-17 -80h-379l-127 -663q-6 -37 -6 -72z" />
    <glyph glyph-name="u" unicode="u" horiz-adv-x="1105" 
d="M129 250q0 53 10 110l125 664h101l-125 -664q-9 -52 -9 -88q0 -98 59.5 -155.5t147.5 -57.5q167 0 336 164l152 801h98l-190 -1024h-101l21 113q-160 -137 -330 -138q-125 0 -210 81t-85 194z" />
    <glyph glyph-name="v" unicode="v" horiz-adv-x="960" 
d="M416 0h-76l-205 1024h101l165 -881l492 881h108z" />
    <glyph glyph-name="w" unicode="w" horiz-adv-x="1521" 
d="M1024 0h-88l-111 889l-448 -889h-88l-146 1024h97l112 -889l449 889h88l112 -889l449 889h104z" />
    <glyph glyph-name="x" unicode="x" horiz-adv-x="960" 
d="M416 524l-248 500h113l208 -428l357 428h127l-436 -508l256 -516h-113l-215 444l-377 -444h-129z" />
    <glyph glyph-name="y" unicode="y" horiz-adv-x="960" 
d="M160 -449h-105l279 478l-199 995h101l165 -881l492 881h108z" />
    <glyph glyph-name="z" unicode="z" horiz-adv-x="944" 
d="M6 76l787 868h-592l16 80h713l-17 -76l-784 -868h631l-15 -80h-753z" />
    <glyph glyph-name="braceleft" unicode="{" horiz-adv-x="641" 
d="M709 1393q-92 0 -151.5 -49.5t-76.5 -141.5l-75 -401q-16 -86 -70.5 -145.5t-142.5 -82.5q63 -23 96 -75t33 -103t-9 -90l-61 -321q-8 -32 -8 -64q0 -74 43 -117t116 -43h33l-16 -79h-23q-121 0 -188.5 63t-67.5 176q0 38 9 72l61 319q8 37 8 85t-42 94.5t-105 46.5h-21
l17 79h20q117 0 163 81t54 128l76 400q23 117 111 182.5t225 65.5h41l-17 -80h-32z" />
    <glyph glyph-name="bar" unicode="|" horiz-adv-x="512" 
d="M213 1538h88v-2050h-88v2050z" />
    <glyph glyph-name="braceright" unicode="}" horiz-adv-x="641" 
d="M-45 -240q92 0 152.5 50.5t76.5 142.5l76 399q16 86 70.5 145.5t142.5 82.5q-63 23 -96 74.5t-33 105.5t8 88l60 321q10 40 10 64q0 76 -44 118t-118 42h-31l15 80h24q121 0 187.5 -63.5t66.5 -176.5q0 -39 -8 -72l-59 -319q-9 -40 -9 -87q0 -46 42 -92.5t104 -46.5h20
l-14 -79h-20q-76 0 -139 -58.5t-81 -150.5l-73 -400q-23 -117 -112 -182t-224 -65h-41l14 79h33z" />
    <glyph glyph-name="asciitilde" unicode="~" 
d="M109 440q0 133 70.5 217t185.5 84q76 0 133 -37.5t108 -83t99.5 -83t114.5 -37.5t113.5 59t47.5 154h88q0 -133 -70.5 -217t-185.5 -84q-76 0 -134 37.5t-108.5 83t-98.5 83t-114 37.5t-113.5 -59t-47.5 -154h-88z" />
    <glyph glyph-name="uni00A0" unicode="&#xa0;" horiz-adv-x="512" 
 />
    <glyph glyph-name="exclamdown" unicode="&#xa1;" horiz-adv-x="512" 
d="M416 975q0 -35 -24.5 -60.5t-59.5 -25.5t-55.5 20.5t-20.5 55.5t25.5 59.5t60.5 24.5t54.5 -19.5t19.5 -54.5zM137 -385h-98l190 1026h101z" />
    <glyph glyph-name="cent" unicode="&#xa2;" 
d="M788 1157q-194 0 -325 -161t-131 -404q0 -152 86 -246t224 -94q139 0 280 84l-19 -105q-123 -59 -268 -63l-55 -297h-88l57 303q-144 24 -233 134t-89 259q0 281 146 468.5t377 203.5l55 299h88l-55 -299q130 -13 235 -86l-16 -96q-131 100 -269 100z" />
    <glyph glyph-name="sterling" unicode="&#xa3;" 
d="M924 1434q109 0 229 -68l-18 -96q-106 76 -205 76q-156 0 -238 -166l-203 -422h342l-14 -82h-366l-287 -592h797l-17 -84h-911l12 63l295 613h-164l14 82h189l217 450q108 226 328 226z" />
    <glyph glyph-name="currency" unicode="&#xa4;" 
d="M301 706q0 -139 87 -226t226 -87t225.5 88.5t86.5 224.5t-88 224t-224 88t-224.5 -86.5t-88.5 -225.5zM1014 702.5q0 -149.5 -84 -253.5l188 -189l-61 -61l-191 188q-100 -82 -253 -82t-257 82l-188 -188l-62 61l189 189q-82 104 -82 255.5t82 256.5l-189 188l62 61
l188 -188q104 84 256 84t256 -84l189 188l61 -61l-188 -188q84 -109 84 -258.5z" />
    <glyph glyph-name="yen" unicode="&#xa5;" 
d="M479 336h-332l15 80h332l43 225h-332l14 80h309l-301 688h113l268 -633l506 633h127l-557 -688h303l-14 -80h-332l-43 -225h334l-17 -80h-331l-64 -336h-104z" />
    <glyph glyph-name="brokenbar" unicode="&#xa6;" horiz-adv-x="512" 
d="M213 385h88v-770h-88v770zM213 1409h88v-768h-88v768z" />
    <glyph glyph-name="section" unicode="&#xa7;" horiz-adv-x="968" 
d="M750 545q0 110 -77 165.5t-136.5 86t-120.5 67.5q-78 -47 -121 -111.5t-43 -132.5t29.5 -110.5t77 -76.5t107.5 -63.5t122 -68.5q162 89 162 244zM341 -193q134 0 211 63.5t77 170.5q0 68 -36 112t-89 78.5t-115.5 66.5t-152 100.5t-89.5 217.5q0 92 52.5 172t144.5 138
q-76 76 -76 200t104.5 216t265.5 92t314 -88l-18 -105q-152 105 -282 105t-204.5 -62.5t-74.5 -163.5q0 -66 35.5 -109.5t89 -77.5t204 -108.5t150.5 -279.5q0 -92 -49 -172t-141 -133q72 -84 71 -193q0 -145 -106.5 -236.5t-272.5 -91.5q-165 0 -342 105l21 108
q174 -125 308 -125z" />
    <glyph glyph-name="dieresis" unicode="&#xa8;" horiz-adv-x="512" 
d="M601 1257q-66 0 -66 67q0 32 22.5 54.5t54.5 22.5q66 0 66 -67q0 -32 -22.5 -54.5t-54.5 -22.5zM212 1401q67 0 67 -67q0 -32 -22.5 -54.5t-54.5 -22.5t-50.5 17.5t-18.5 49.5t23.5 54.5t55.5 22.5z" />
    <glyph glyph-name="copyright" unicode="&#xa9;" horiz-adv-x="1730" 
d="M532 704.5q0 185.5 111 308t287 122.5q121 0 227 -62v-92q-112 74 -199 74q-154 0 -239.5 -99t-85.5 -252t86.5 -250.5t208.5 -97.5q121 0 229 72v-92q-113 -62 -213 -62t-174 32t-156 122.5t-82 276zM250 704.5q0 -143.5 48 -263t134 -207t206 -135.5t263 -48t263 48
t207 135.5t135 207t48 263t-48 263t-135 207t-207 135.5t-263 48t-263 -48t-206 -135.5t-134 -207t-48 -263zM166 704.5q0 161.5 54 297t151.5 233.5t232.5 152.5t297 54.5t297 -54.5t233.5 -152.5t152.5 -233.5t54 -297t-54 -297t-152.5 -233.5t-233.5 -152.5t-297 -54.5
t-297 54.5t-232.5 152.5t-151.5 233.5t-54 297z" />
    <glyph glyph-name="ordfeminine" unicode="&#xaa;" horiz-adv-x="727" 
d="M266 1010q0 -80 42 -129.5t120 -49.5t166 84l68 363q-74 68 -140 68t-110.5 -25t-76.5 -69t-50.5 -103t-18.5 -139zM511 1425q81 0 165 -71l10 55h92l-119 -641h-90l11 55q-86 -69 -184 -69t-161 70t-63 172t24.5 178.5t68.5 132t104.5 87t141.5 31.5zM115 612h534
l-14 -71h-535z" />
    <glyph glyph-name="guillemotleft" unicode="&#xab;" 
d="M256 508l289 -412h-105l-327 420l471 414h121zM672 508l289 -412h-105l-328 420l473 414h119z" />
    <glyph glyph-name="logicalnot" unicode="&#xac;" 
d="M76 621h1026v-558h-88v469h-938v89z" />
    <glyph glyph-name="uni00AD" unicode="&#xad;" horiz-adv-x="641" 
d="M88 561h481l-16 -80h-481z" />
    <glyph glyph-name="registered" unicode="&#xae;" horiz-adv-x="1024" 
d="M776 1085q0 -103 -104 -139l119 -192h-78l-111 182h-72v-182h-71v479h155q72 0 117 -41t45 -107zM530 993h74q45 0 71.5 25.5t26.5 66.5t-26.5 66t-71.5 25h-74v-183zM331 722q106 -106 270.5 -106t271 105t106.5 272q0 166 -105.5 271.5t-272 105.5t-271.5 -106.5
t-105 -270.5q0 -165 106 -271zM162 993.5q0 96.5 32.5 177t91 139t139.5 91.5t177 33t177 -33t139.5 -91.5t91 -139t32.5 -177t-32.5 -177.5t-91 -139.5t-139.5 -91t-177 -32.5t-177 32.5t-139.5 91t-91 139.5t-32.5 177.5z" />
    <glyph glyph-name="macron" unicode="&#xaf;" horiz-adv-x="512" 
d="M129 1370h576l-15 -80h-577z" />
    <glyph glyph-name="degree" unicode="&#xb0;" horiz-adv-x="704" 
d="M311 1201q0 -67 43 -109.5t110 -42.5t109.5 43.5t42.5 109.5t-43 109t-109 43t-109.5 -43t-43.5 -110zM231 1201q0 103 64.5 168t168.5 65t168 -64t64 -168t-64.5 -168.5t-167.5 -64.5t-168 64.5t-65 167.5z" />
    <glyph glyph-name="plusminus" unicode="&#xb1;" 
d="M76 88h1026v-88h-1026v88zM76 780h469v469h88v-469h469v-88h-469v-469h-88v469h-469v88z" />
    <glyph glyph-name="uni00B2" unicode="&#xb2;" horiz-adv-x="624" 
d="M610 1454q0 66 -37 104.5t-97 38.5q-122 0 -222 -77l16 102q106 57 212 57t167.5 -58t61.5 -167t-118 -241t-339 -300h371l-15 -79h-506l15 69q242 174 366.5 307t124.5 244z" />
    <glyph glyph-name="uni00B3" unicode="&#xb3;" horiz-adv-x="616" 
d="M389 1294q92 0 153.5 50.5t61.5 116.5t-42 102t-120 36t-180 -53l17 92q98 41 195 41t161.5 -55t64.5 -137t-52 -146.5t-138 -87.5q63 -18 100 -67.5t37 -109.5q0 -115 -86 -186t-211 -71t-231 66l14 88q99 -74 199 -74t158.5 48t58.5 120t-51.5 112t-130.5 40h-39l16 75
h45z" />
    <glyph glyph-name="acute" unicode="&#xb4;" horiz-adv-x="512" 
d="M561 1473h127l-280 -287h-103z" />
    <glyph glyph-name="mu" unicode="&#xb5;" horiz-adv-x="1114" 
d="M240 272q0 -98 59 -155.5t147 -57.5q165 0 338 164l150 801h98l-190 -1024h-101l21 113q-160 -137 -317 -137t-248 116l-101 -541h-100l276 1473h101l-125 -664q-8 -46 -8 -88z" />
    <glyph glyph-name="paragraph" unicode="&#xb6;" 
d="M545 641q-167 0 -268 87.5t-101 232.5q0 196 142 322t358 126h426l-309 -1665h-88l292 1577h-225l-127 -680h-100z" />
    <glyph glyph-name="periodcentered" unicode="&#xb7;" horiz-adv-x="512" 
d="M176 508q0 35 24.5 59.5t59.5 24.5t55.5 -19.5t20.5 -54.5t-24.5 -60.5t-59.5 -25.5t-55.5 20.5t-20.5 55.5z" />
    <glyph glyph-name="cedilla" unicode="&#xb8;" horiz-adv-x="512" 
d="M291 -295q0 -68 -67.5 -123t-157.5 -55t-170 49l16 80q74 -49 140 -49t104.5 30.5t38.5 77.5t-38 74t-98 27h-8l82 184h88l-55 -133q55 -10 90 -52t35 -110z" />
    <glyph glyph-name="uni00B9" unicode="&#xb9;" horiz-adv-x="495" 
d="M457 1559l-236 -111l17 92l268 125h67l-155 -831h-96z" />
    <glyph glyph-name="ordmasculine" unicode="&#xba;" horiz-adv-x="727" 
d="M266 1013q0 -79 44 -130.5t108 -51.5q114 0 186 94.5t72 229.5q0 88 -44 140.5t-108 52.5t-108.5 -26t-77.5 -69t-52.5 -102t-19.5 -138zM172 998q0 193 97 310t253 117q113 0 181.5 -71.5t68.5 -175.5q0 -192 -98.5 -308t-251.5 -116q-115 0 -182.5 70t-67.5 174z
M115 612h534l-14 -71h-535z" />
    <glyph glyph-name="guillemotright" unicode="&#xbb;" 
d="M897 516l-289 414h105l327 -422l-471 -412h-120zM481 516l-288 414h104l328 -422l-473 -412h-119z" />
    <glyph glyph-name="onequarter" unicode="&#xbc;" horiz-adv-x="1730" 
d="M1415 307l70 377l-348 -377h278zM1401 231h-379l12 70l490 530h82l-99 -524h131l-14 -76h-131l-43 -231h-92zM1503 1409h109l-1313 -1409h-111zM514 1303l-235 -111l16 92l268 125h68l-156 -831h-96z" />
    <glyph glyph-name="onehalf" unicode="&#xbd;" horiz-adv-x="1730" 
d="M514 1303l-235 -111l16 92l268 125h68l-156 -831h-96zM1520 621q0 66 -38 104.5t-98 38.5q-119 0 -221 -78l17 102q106 58 212 58t167 -58.5t61 -152.5q0 -123 -118 -255t-339 -300h371l-14 -80h-506l14 70q242 174 367 307t125 244zM1503 1409h109l-1313 -1409h-111z
" />
    <glyph glyph-name="threequarters" unicode="&#xbe;" horiz-adv-x="1730" 
d="M1415 307l70 377l-348 -377h278zM1401 231h-379l12 70l490 530h82l-99 -524h131l-14 -76h-131l-43 -231h-92zM1503 1409h109l-1313 -1409h-111zM387 1038q92 0 153.5 50.5t61.5 116.5t-42 102t-120 36t-180 -53l16 92q98 41 196 41t162 -55t64 -137t-52 -146.5
t-138 -87.5q63 -18 100 -67.5t37 -109.5q0 -115 -86 -186t-211 -71t-231 66l14 88q99 -74 199 -74t158.5 48t58.5 120t-51.5 112t-130.5 40h-39l16 75h45z" />
    <glyph glyph-name="questiondown" unicode="&#xbf;" horiz-adv-x="897" 
d="M666 975q0 -35 -26 -59.5t-60 -24.5t-55 19.5t-21 54.5t25.5 60.5t60.5 25.5t55.5 -20.5t20.5 -55.5zM125 -110q0 -88 64.5 -151t156.5 -63q176 0 342 134l-22 -121q-149 -97 -307 -97t-250.5 87t-92.5 227t76 227.5t131.5 135.5t142.5 132.5t117 212.5l6 27h97l-8 -43
q-35 -192 -205.5 -333t-209 -214t-38.5 -161z" />
    <glyph glyph-name="Agrave" unicode="&#xc0;" horiz-adv-x="1249" 
d="M375 528h545l-140 721zM766 1409h78l280 -1409h-102l-86 444h-610l-250 -444h-113zM649 1858h111l145 -287h-88z" />
    <glyph glyph-name="Aacute" unicode="&#xc1;" horiz-adv-x="1249" 
d="M375 528h545l-140 721zM766 1409h78l280 -1409h-102l-86 444h-610l-250 -444h-113zM1010 1858h127l-281 -287h-102z" />
    <glyph glyph-name="Acircumflex" unicode="&#xc2;" horiz-adv-x="1249" 
d="M375 528h545l-140 721zM766 1409h78l280 -1409h-102l-86 444h-610l-250 -444h-113zM842 1858h80l143 -287h-84l-113 192l-184 -192h-100z" />
    <glyph glyph-name="Atilde" unicode="&#xc3;" horiz-adv-x="1249" 
d="M375 528h545l-140 721zM766 1409h78l280 -1409h-102l-86 444h-610l-250 -444h-113zM978 1698q30 0 58 26t37 70h80q-14 -78 -63 -129t-115 -51t-132 58q-27 22 -51 40q-60 44 -114 -7q-29 -26 -37 -71h-80q17 78 65 129t103 51t86 -18t57 -40t50 -40q26 -18 56 -18z" />
    <glyph glyph-name="Adieresis" unicode="&#xc4;" horiz-adv-x="1249" 
d="M375 528h545l-140 721zM766 1409h78l280 -1409h-102l-86 444h-610l-250 -444h-113zM1050 1642q-66 0 -67 67q0 33 23 55q22 22 54 22q66 0 66 -67q0 -33 -22 -55t-54 -22zM650 1642q-68 0 -68 67q0 33 24 55t55 22q66 0 66 -67q-1 -33 -23 -55t-54 -22z" />
    <glyph glyph-name="Aring" unicode="&#xc5;" horiz-adv-x="1249" 
d="M375 528h545l-140 721zM766 1409h78l280 -1409h-102l-86 444h-610l-250 -444h-113zM745 1708q0 -49 28 -78q28 -28 77 -28t84 34t35 84q0 49 -28 78t-77 29t-84 -35t-35 -84zM672 1703q0 79 58 137t138 58t126 -47t46 -125t-57 -138q-57 -58 -137 -58t-127 47t-47 126z
" />
    <glyph glyph-name="AE" unicode="&#xc6;" horiz-adv-x="1810" 
d="M446 528h478l141 750zM907 444h-532l-367 -444h-121l1170 1409h792l-16 -84h-655l-107 -567h578l-17 -84h-577l-111 -590h672l-14 -84h-777z" />
    <glyph glyph-name="Ccedilla" unicode="&#xc7;" horiz-adv-x="1224" 
d="M135 528q0 394 213.5 650t561.5 256q184 0 360 -121l-21 -105q-174 137 -360 138q-137 0 -255 -61.5t-254 -229.5t-136 -510q0 -214 119 -348t317 -134q197 0 377 113l-21 -113q-168 -88 -366 -88l-45 -108q57 -10 92 -52t35 -96q0 -82 -68 -137t-158 -55t-170 49l17 80
q74 -49 140 -49t104 30.5t38 77.5t-37.5 74t-97.5 27h-8l72 166q-204 29 -326.5 179.5t-122.5 366.5z" />
    <glyph glyph-name="Egrave" unicode="&#xc8;" horiz-adv-x="1105" 
d="M385 1409h760l-17 -84h-655l-106 -567h575l-14 -84h-578l-110 -590h671l-14 -84h-776zM602 1858h111l145 -287h-88z" />
    <glyph glyph-name="Eacute" unicode="&#xc9;" horiz-adv-x="1105" 
d="M385 1409h760l-17 -84h-655l-106 -567h575l-14 -84h-578l-110 -590h671l-14 -84h-776zM963 1858h127l-281 -287h-102z" />
    <glyph glyph-name="Ecircumflex" unicode="&#xca;" horiz-adv-x="1105" 
d="M385 1409h760l-17 -84h-655l-106 -567h575l-14 -84h-578l-110 -590h671l-14 -84h-776zM795 1858h79l144 -287h-84l-113 192l-184 -192h-100z" />
    <glyph glyph-name="Edieresis" unicode="&#xcb;" horiz-adv-x="1105" 
d="M385 1409h760l-17 -84h-655l-106 -567h575l-14 -84h-578l-110 -590h671l-14 -84h-776zM1002 1642q-66 0 -66 67q0 33 22 55t55 22q66 0 66 -67q-1 -33 -23 -55t-54 -22zM602 1642q-68 0 -67 67q-1 33 23 55t56 22q66 0 66 -67q0 -33 -23 -55t-55 -22z" />
    <glyph glyph-name="Igrave" unicode="&#xcc;" horiz-adv-x="536" 
d="M385 1409h104l-266 -1409h-102zM285 1858h110l146 -287h-88z" />
    <glyph glyph-name="Iacute" unicode="&#xcd;" horiz-adv-x="536" 
d="M385 1409h104l-266 -1409h-102zM645 1858h127l-280 -287h-103z" />
    <glyph glyph-name="Icircumflex" unicode="&#xce;" horiz-adv-x="536" 
d="M385 1409h104l-266 -1409h-102zM477 1858h80l143 -287h-84l-112 192l-185 -192h-100z" />
    <glyph glyph-name="Idieresis" unicode="&#xcf;" horiz-adv-x="536" 
d="M385 1409h104l-266 -1409h-102zM684 1642q-66 0 -66 67q0 33 23 55t55 22t48 -18q18 -18 18 -49q0 -33 -23 -55t-55 -22zM296 1786q66 0 66 -67q0 -33 -22 -55t-54 -22t-50 18t-19 49q0 33 24 55q23 22 55 22z" />
    <glyph glyph-name="Eth" unicode="&#xd0;" horiz-adv-x="1409" 
d="M561 84q305 0 490.5 212.5t185.5 567.5q0 217 -130 339t-362 122h-241l-105 -567h353l-17 -82h-352l-111 -592h289zM768 1409q254 0 416 -146.5t162 -366.5q0 -423 -213.5 -659.5t-579.5 -236.5h-401l127 676h-185l17 82h184l121 651h352z" />
    <glyph glyph-name="Ntilde" unicode="&#xd1;" horiz-adv-x="1441" 
d="M385 1409h88l588 -1225l229 1225h103l-265 -1409h-88l-587 1225l-230 -1225h-102zM1066 1698q30 0 58 26t37 70h80q-14 -78 -63 -129t-115 -51t-132 58q-27 22 -51 40q-60 44 -114 -7q-29 -26 -37 -71h-80q17 78 65 129t104 51t86 -18t56 -40t50 -40q26 -18 56 -18z" />
    <glyph glyph-name="Ograve" unicode="&#xd2;" horiz-adv-x="1441" 
d="M244 574q0 -140 28 -229q56 -176 213 -248q75 -34 187 -34q112 1 224 63t195 170q179 233 179 568q0 222 -113 352t-301 130q-127 0 -239 -62q-113 -62 -195 -171q-82 -108 -130 -254q-48 -145 -48 -285zM135 562q0 161 55 327q112 337 383 476q133 69 271 69t232 -39
q302 -124 302 -549q0 -160 -55 -326q-112 -338 -384 -476q-135 -69 -271 -69t-231 39q-302 124 -302 548zM737 1858h111l145 -287h-88z" />
    <glyph glyph-name="Oacute" unicode="&#xd3;" horiz-adv-x="1441" 
d="M244 574q0 -140 28 -229q56 -176 213 -248q75 -34 187 -34q112 1 224 63t195 170q179 233 179 568q0 222 -113 352t-301 130q-127 0 -239 -62q-113 -62 -195 -171q-82 -108 -130 -254q-48 -145 -48 -285zM135 562q0 161 55 327q112 337 383 476q133 69 271 69t232 -39
q302 -124 302 -549q0 -160 -55 -326q-112 -338 -384 -476q-135 -69 -271 -69t-231 39q-302 124 -302 548zM1098 1858h127l-281 -287h-102z" />
    <glyph glyph-name="Ocircumflex" unicode="&#xd4;" horiz-adv-x="1441" 
d="M244 574q0 -140 28 -229q56 -176 213 -248q75 -34 187 -34q112 1 224 63t195 170q179 233 179 568q0 222 -113 352t-301 130q-127 0 -239 -62q-113 -62 -195 -171q-82 -108 -130 -254q-48 -145 -48 -285zM135 562q0 161 55 327q112 337 383 476q133 69 271 69t232 -39
q302 -124 302 -549q0 -160 -55 -326q-112 -338 -384 -476q-135 -69 -271 -69t-231 39q-302 124 -302 548zM930 1858h80l143 -287h-84l-113 192l-184 -192h-100z" />
    <glyph glyph-name="Otilde" unicode="&#xd5;" horiz-adv-x="1441" 
d="M244 574q0 -140 28 -229q56 -176 213 -248q75 -34 187 -34q112 1 224 63t195 170q179 233 179 568q0 222 -113 352t-301 130q-127 0 -239 -62q-113 -62 -195 -171q-82 -108 -130 -254q-48 -145 -48 -285zM135 562q0 161 55 327q112 337 383 476q133 69 271 69t232 -39
q302 -124 302 -549q0 -160 -55 -326q-112 -338 -384 -476q-135 -69 -271 -69t-231 39q-302 124 -302 548zM1066 1698q30 0 58 26t37 70h80q-14 -78 -63 -129t-115 -51t-132 58q-27 22 -51 40q-60 44 -114 -7q-29 -26 -37 -71h-80q17 78 65 129t104 51t86 -18t56 -40t50 -40
q26 -18 56 -18z" />
    <glyph glyph-name="Odieresis" unicode="&#xd6;" horiz-adv-x="1441" 
d="M244 574q0 -140 28 -229q56 -176 213 -248q75 -34 187 -34q112 1 224 63t195 170q179 233 179 568q0 222 -113 352t-301 130q-127 0 -239 -62q-113 -62 -195 -171q-82 -108 -130 -254q-48 -145 -48 -285zM135 562q0 161 55 327q112 337 383 476q133 69 271 69t232 -39
q302 -124 302 -549q0 -160 -55 -326q-112 -338 -384 -476q-135 -69 -271 -69t-231 39q-302 124 -302 548zM1138 1642q-66 0 -67 67q0 33 23 55q22 22 54 22q66 0 66 -67q0 -33 -22 -55t-54 -22zM738 1642q-68 0 -68 67q0 33 24 55t55 22q66 0 66 -67q-1 -33 -23 -55t-54 -22
z" />
    <glyph glyph-name="multiply" unicode="&#xd7;" 
d="M150 201l376 377l-376 374l63 64l377 -377l375 377l63 -64l-377 -374l377 -377l-63 -64l-375 377l-377 -377z" />
    <glyph glyph-name="Oslash" unicode="&#xd8;" horiz-adv-x="1441" 
d="M244 551q0 -162 57 -277l866 930q-106 141 -311 142q-127 0 -238.5 -62.5t-194.5 -170t-131 -254t-48 -308.5zM1270 858q0 162 -58 277l-866 -930q106 -141 311 -142q127 0 239 62.5t195 170t131 254t48 308.5zM135 529q0 194 55.5 360t152.5 286.5t230.5 189.5t290.5 69
q240 0 375 -152l119 127h110l-178 -192q88 -142 88 -336q0 -195 -55 -361t-152.5 -286.5t-231.5 -189.5t-290 -69q-236 0 -375 152l-118 -127h-111l178 193q-88 142 -88 336z" />
    <glyph glyph-name="Ugrave" unicode="&#xd9;" horiz-adv-x="1441" 
d="M303 392q0 -136 100 -233q100 -96 267 -96t293 110q125 110 159 300l174 936h105l-176 -944q-47 -230 -200 -360q-154 -130 -360 -130t-337 120t-129 298q0 58 14 144l164 872h104l-164 -872q-14 -82 -14 -145zM737 1858h111l145 -287h-88z" />
    <glyph glyph-name="Uacute" unicode="&#xda;" horiz-adv-x="1441" 
d="M303 392q0 -136 100 -233q100 -96 267 -96t293 110q125 110 159 300l174 936h105l-176 -944q-47 -230 -200 -360q-154 -130 -360 -130t-337 120t-129 298q0 58 14 144l164 872h104l-164 -872q-14 -82 -14 -145zM1098 1858h127l-281 -287h-102z" />
    <glyph glyph-name="Ucircumflex" unicode="&#xdb;" horiz-adv-x="1441" 
d="M303 392q0 -136 100 -233q100 -96 267 -96t293 110q125 110 159 300l174 936h105l-176 -944q-47 -230 -200 -360q-154 -130 -360 -130t-337 120t-129 298q0 58 14 144l164 872h104l-164 -872q-14 -82 -14 -145zM930 1858h80l143 -287h-84l-113 192l-184 -192h-100z" />
    <glyph glyph-name="Udieresis" unicode="&#xdc;" horiz-adv-x="1441" 
d="M303 392q0 -136 100 -233q100 -96 267 -96t293 110q125 110 159 300l174 936h105l-176 -944q-47 -230 -200 -360q-154 -130 -360 -130t-337 120t-129 298q0 58 14 144l164 872h104l-164 -872q-14 -82 -14 -145zM1138 1642q-66 0 -67 67q0 33 23 55q22 22 54 22
q66 0 66 -67q0 -33 -22 -55t-54 -22zM738 1642q-68 0 -68 67q0 33 24 55t55 22q66 0 66 -67q-1 -33 -23 -55t-54 -22z" />
    <glyph glyph-name="Yacute" unicode="&#xdd;" 
d="M532 621l-344 788h113l295 -696l557 696h129l-645 -797l-117 -612h-104zM942 1858h127l-281 -287h-102z" />
    <glyph glyph-name="Thorn" unicode="&#xde;" 
d="M549 369q198 0 321 109.5t123 285.5q0 133 -89 209t-242 76h-242l-127 -680h256zM692 1133q184 0 297 -98t113 -255q0 -218 -156 -356.5t-397 -138.5h-273l-53 -285h-102l264 1409h104l-53 -276h256z" />
    <glyph glyph-name="germandbls" unicode="&#xdf;" horiz-adv-x="1265" 
d="M1032 264q0 57 -29.5 96t-72.5 72t-168 103t-125 225q0 84 40 142.5t88 108.5t88 99t40 123t-58.5 127t-162.5 53t-177 -63.5t-96 -180.5l-272 -1458h-100l276 1475q27 145 128 228t245 83t230.5 -71.5t86.5 -192.5q0 -84 -40 -142.5t-88 -107.5t-88 -99t-40 -110
t30 -97.5t73 -69.5t168 -105.5t125 -229.5q0 -129 -96.5 -213t-245.5 -84t-306 93l19 100q148 -109 270 -109q121 0 189.5 56.5t68.5 148.5z" />
    <glyph glyph-name="agrave" unicode="&#xe0;" horiz-adv-x="1105" 
d="M193 376q-1 -140 73 -229q74 -88 213 -88t291 150l121 633q-133 123 -275 123q-182 0 -303 -163q-120 -162 -120 -426zM88 359q0 165 39 288q79 248 277 351q98 50 230 50t273 -118l19 94h100l-192 -1024h-101l17 96q-144 -121 -302 -121t-259 110q-101 109 -101 274z
M498 1473h110l146 -287h-88z" />
    <glyph glyph-name="aacute" unicode="&#xe1;" horiz-adv-x="1105" 
d="M193 376q-1 -140 73 -229q74 -88 213 -88t291 150l121 633q-133 123 -275 123q-182 0 -303 -163q-120 -162 -120 -426zM88 359q0 165 39 288q79 248 277 351q98 50 230 50t273 -118l19 94h100l-192 -1024h-101l17 96q-144 -121 -302 -121t-259 110q-101 109 -101 274z
M858 1473h127l-280 -287h-103z" />
    <glyph glyph-name="acircumflex" unicode="&#xe2;" horiz-adv-x="1105" 
d="M193 376q-1 -140 73 -229q74 -88 213 -88t291 150l121 633q-133 123 -275 123q-182 0 -303 -163q-120 -162 -120 -426zM88 359q0 165 39 288q79 248 277 351q98 50 230 50t273 -118l19 94h100l-192 -1024h-101l17 96q-144 -121 -302 -121t-259 110q-101 109 -101 274z
M690 1473h80l143 -287h-84l-112 192l-185 -192h-100z" />
    <glyph glyph-name="atilde" unicode="&#xe3;" horiz-adv-x="1105" 
d="M193 376q-1 -140 73 -229q74 -88 213 -88t291 150l121 633q-133 123 -275 123q-182 0 -303 -163q-120 -162 -120 -426zM88 359q0 165 39 288q79 248 277 351q98 50 230 50t273 -118l19 94h100l-192 -1024h-101l17 96q-144 -121 -302 -121t-259 110q-101 109 -101 274z
M826 1313q30 -1 59 25t37 71h79q-14 -78 -63 -129t-114 -51t-133 58q-27 22 -51 40q-24 19 -54 19t-60 -26q-29 -26 -37 -71h-79q16 78 64 129q48 52 113 52t133 -59q26 -22 50 -40q26 -18 56 -18z" />
    <glyph glyph-name="adieresis" unicode="&#xe4;" horiz-adv-x="1105" 
d="M193 376q-1 -140 73 -229q74 -88 213 -88t291 150l121 633q-133 123 -275 123q-182 0 -303 -163q-120 -162 -120 -426zM88 359q0 165 39 288q79 248 277 351q98 50 230 50t273 -118l19 94h100l-192 -1024h-101l17 96q-144 -121 -302 -121t-259 110q-101 109 -101 274z
M898 1257q-66 0 -67 67q0 32 23 54q22 22 54 23t49 -17t17 -50t-22 -54t-54 -23zM510 1401q66 0 65 -67q-1 -32 -23 -54t-54 -23t-50 17t-18 50t24 54t56 23z" />
    <glyph glyph-name="aring" unicode="&#xe5;" horiz-adv-x="1105" 
d="M193 376q-1 -140 73 -229q74 -88 213 -88t291 150l121 633q-133 123 -275 123q-182 0 -303 -163q-120 -162 -120 -426zM88 359q0 165 39 288q79 248 277 351q98 50 230 50t273 -118l19 94h100l-192 -1024h-101l17 96q-144 -121 -302 -121t-259 110q-101 109 -101 274z
M594 1323q0 -49 28 -78t76 -29t84 36q35 34 35 83t-27 78q-28 29 -77 29t-84 -35t-35 -84zM520 1318q0 79 58 137t139 58q80 0 126 -47q46 -48 46 -126q1 -78 -57 -136t-138 -59q-80 0 -127 47t-47 126z" />
    <glyph glyph-name="ae" unicode="&#xe6;" horiz-adv-x="1648" 
d="M1479 680q0 127 -63.5 206t-170.5 79q-141 0 -245.5 -102.5t-147.5 -284.5h618q9 65 9 102zM731 390q0 75 10 126q-92 12 -181 12q-181 0 -294.5 -81t-113.5 -207q0 -84 60 -132.5t160 -48.5q200 0 382 181q-23 75 -23 150zM47 236q0 161 147.5 266.5t366.5 105.5
q96 0 195 -12l16 84q8 40 8 80q0 92 -61.5 148.5t-157.5 56.5q-145 0 -307 -84l18 100q154 68 282 68q249 0 316 -189q148 189 387 189q142 0 233 -99.5t91 -261.5q0 -104 -20 -192h-721q-6 -44 -6 -104t22.5 -124.5t88 -136.5t212.5 -72q146 0 293 101l-20 -113
q-143 -72 -277 -72q-252 0 -365 189q-218 -189 -428 -189q-145 0 -229 70t-84 191z" />
    <glyph glyph-name="ccedilla" unicode="&#xe7;" horiz-adv-x="944" 
d="M88 374q0 296 159.5 485.5t401.5 189.5q154 0 285 -88l-19 -97q-129 100 -266 101q-194 0 -325 -161.5t-131 -402.5q0 -154 84.5 -248t225.5 -94t279 84l-20 -102q-104 -55 -256 -66l-45 -108q57 -10 92 -52t35 -110t-68 -123t-158 -55t-169 49l16 80q74 -49 140 -49
t103 30.5t37 77.5t-36.5 74t-96.5 27h-8l72 166q-150 23 -241 130.5t-91 261.5z" />
    <glyph glyph-name="egrave" unicode="&#xe8;" horiz-adv-x="1009" 
d="M840 680q0 127 -65 206t-171 79q-142 -1 -246 -103t-145 -284h618q9 65 9 102zM940 680q0 -88 -18 -184h-723q-6 -44 -6 -104q1 -60 23 -125t64 -111q90 -98 236 -97q146 0 293 101l-21 -113q-143 -72 -308 -72t-278 118q-114 118 -114 282q0 163 39 284q78 243 275 341
q98 48 192 48t154 -26q192 -88 192 -342zM489 1473h111l145 -287h-88z" />
    <glyph glyph-name="eacute" unicode="&#xe9;" horiz-adv-x="1009" 
d="M840 680q0 127 -65 206t-171 79q-142 -1 -246 -103t-145 -284h618q9 65 9 102zM940 680q0 -88 -18 -184h-723q-6 -44 -6 -104q1 -60 23 -125t64 -111q90 -98 236 -97q146 0 293 101l-21 -113q-143 -72 -308 -72t-278 118q-114 118 -114 282q0 163 39 284q78 243 275 341
q98 48 192 48t154 -26q192 -88 192 -342zM850 1473h127l-281 -287h-102z" />
    <glyph glyph-name="ecircumflex" unicode="&#xea;" horiz-adv-x="1009" 
d="M840 680q0 127 -65 206t-171 79q-142 -1 -246 -103t-145 -284h618q9 65 9 102zM940 680q0 -88 -18 -184h-723q-6 -44 -6 -104q1 -60 23 -125t64 -111q90 -98 236 -97q146 0 293 101l-21 -113q-143 -72 -308 -72t-278 118q-114 118 -114 282q0 163 39 284q78 243 275 341
q98 48 192 48t154 -26q192 -88 192 -342zM682 1473h80l143 -287h-84l-112 192l-185 -192h-100z" />
    <glyph glyph-name="edieresis" unicode="&#xeb;" horiz-adv-x="1009" 
d="M840 680q0 127 -65 206t-171 79q-142 -1 -246 -103t-145 -284h618q9 65 9 102zM940 680q0 -88 -18 -184h-723q-6 -44 -6 -104q1 -60 23 -125t64 -111q90 -98 236 -97q146 0 293 101l-21 -113q-143 -72 -308 -72t-278 118q-114 118 -114 282q0 163 39 284q78 243 275 341
q98 48 192 48t154 -26q192 -88 192 -342zM890 1257q-66 0 -67 67q0 32 23 54q22 22 54 23t49 -17t17 -50t-22 -54t-54 -23zM490 1257q-68 0 -68 67q0 32 24 54t55 23q66 0 66 -67q-1 -32 -23 -54t-54 -23z" />
    <glyph glyph-name="igrave" unicode="&#xec;" horiz-adv-x="452" 
d="M272 1024h101l-193 -1024h-100zM172 1473h111l145 -287h-88z" />
    <glyph glyph-name="iacute" unicode="&#xed;" horiz-adv-x="452" 
d="M272 1024h101l-193 -1024h-100zM532 1473h127l-280 -287h-103z" />
    <glyph glyph-name="icircumflex" unicode="&#xee;" horiz-adv-x="452" 
d="M272 1024h101l-193 -1024h-100zM365 1473h79l144 -287h-84l-113 192l-184 -192h-101z" />
    <glyph glyph-name="idieresis" unicode="&#xef;" horiz-adv-x="452" 
d="M272 1024h101l-193 -1024h-100zM572 1257q-66 0 -66 67q0 32 22 54t55 23q66 0 66 -67q-1 -32 -23 -54t-54 -23zM104 1324q0 32 24 54t56 23t48 -17q18 -18 18 -50t-23 -54t-55 -23t-50 17t-18 50z" />
    <glyph glyph-name="eth" unicode="&#xf0;" horiz-adv-x="1105" 
d="M193 380q0 -138 77.5 -229.5t210.5 -91.5q92 0 173 47.5t174.5 175.5t93.5 390q0 98 -11 162q-135 131 -295 131q-86 0 -163.5 -44t-135 -121t-91 -179.5t-33.5 -240.5zM801 1317q223 -271 223 -603t-154 -535.5t-401 -203.5q-166 0 -273.5 113t-107.5 297
q0 289 152.5 476.5t384.5 187.5q140 0 264 -97q-70 194 -187 330l-278 -98l18 88l205 71q-58 62 -143 130h145q41 -35 99 -93l237 84l-16 -88z" />
    <glyph glyph-name="ntilde" unicode="&#xf1;" horiz-adv-x="1105" 
d="M954 881q22 -51 23 -97q0 -46 -12 -118l-123 -666h-101l123 666q10 47 10 88q0 98 -59 154t-158 57q-158 0 -327 -164l-150 -801h-100l192 1024h101l-21 -111q160 135 328 136q63 0 118 -22q112 -46 156 -146zM830 1313q30 -1 59 25t37 71h80q-14 -78 -64 -129t-114 -51
q-65 0 -133 58q-27 22 -51 40q-24 19 -54 19t-60 -26q-29 -26 -36 -71h-80q16 78 64 129q48 52 113 52t133 -59q26 -22 50 -40q26 -18 56 -18z" />
    <glyph glyph-name="ograve" unicode="&#xf2;" horiz-adv-x="1105" 
d="M193 380q-1 -138 77 -228q78 -92 211 -93q182 0 308 167t124 399q1 159 -77 249t-211 91q-181 0 -307 -165q-125 -166 -125 -420zM88 385q0 289 153 476q153 186 392 188q176 0 281 -112q104 -112 104 -276q0 -312 -154 -498t-391 -188q-178 0 -282 111
q-103 111 -103 299zM498 1473h110l146 -287h-88z" />
    <glyph glyph-name="oacute" unicode="&#xf3;" horiz-adv-x="1105" 
d="M193 380q-1 -138 77 -228q78 -92 211 -93q182 0 308 167t124 399q1 159 -77 249t-211 91q-181 0 -307 -165q-125 -166 -125 -420zM88 385q0 289 153 476q153 186 392 188q176 0 281 -112q104 -112 104 -276q0 -312 -154 -498t-391 -188q-178 0 -282 111
q-103 111 -103 299zM858 1473h127l-280 -287h-103z" />
    <glyph glyph-name="ocircumflex" unicode="&#xf4;" horiz-adv-x="1105" 
d="M193 380q-1 -138 77 -228q78 -92 211 -93q182 0 308 167t124 399q1 159 -77 249t-211 91q-181 0 -307 -165q-125 -166 -125 -420zM88 385q0 289 153 476q153 186 392 188q176 0 281 -112q104 -112 104 -276q0 -312 -154 -498t-391 -188q-178 0 -282 111
q-103 111 -103 299zM690 1473h80l143 -287h-84l-112 192l-185 -192h-100z" />
    <glyph glyph-name="otilde" unicode="&#xf5;" horiz-adv-x="1105" 
d="M193 380q-1 -138 77 -228q78 -92 211 -93q182 0 308 167t124 399q1 159 -77 249t-211 91q-181 0 -307 -165q-125 -166 -125 -420zM88 385q0 289 153 476q153 186 392 188q176 0 281 -112q104 -112 104 -276q0 -312 -154 -498t-391 -188q-178 0 -282 111
q-103 111 -103 299zM826 1313q30 -1 59 25t37 71h79q-14 -78 -63 -129t-114 -51t-133 58q-27 22 -51 40q-24 19 -54 19t-60 -26q-29 -26 -37 -71h-79q16 78 64 129q48 52 113 52t133 -59q26 -22 50 -40q26 -18 56 -18z" />
    <glyph glyph-name="odieresis" unicode="&#xf6;" horiz-adv-x="1105" 
d="M193 380q-1 -138 77 -228q78 -92 211 -93q182 0 308 167t124 399q1 159 -77 249t-211 91q-181 0 -307 -165q-125 -166 -125 -420zM88 385q0 289 153 476q153 186 392 188q176 0 281 -112q104 -112 104 -276q0 -312 -154 -498t-391 -188q-178 0 -282 111
q-103 111 -103 299zM898 1257q-66 0 -67 67q0 32 23 54q22 22 54 23t49 -17t17 -50t-22 -54t-54 -23zM510 1401q66 0 65 -67q-1 -32 -23 -54t-54 -23t-50 17t-18 50t24 54t56 23z" />
    <glyph glyph-name="divide" unicode="&#xf7;" 
d="M516 962q0 32 20.5 51t52.5 19t52.5 -19t20.5 -51t-20.5 -52.5t-52.5 -20.5t-52.5 20.5t-20.5 52.5zM76 621h1026v-89h-1026v89zM516 192q0 32 20.5 52t52.5 20t52.5 -20t20.5 -52t-20.5 -51.5t-52.5 -19.5t-52.5 19.5t-20.5 51.5z" />
    <glyph glyph-name="oslash" unicode="&#xf8;" horiz-adv-x="1105" 
d="M193 410q0 -110 34 -187l607 649q-80 92 -209 93q-180 0 -306 -163.5t-126 -391.5zM879.5 403.5q33.5 102.5 33.5 207.5t-36 192l-605 -651q76 -92 209 -93q181 0 273 121t125.5 223.5zM1018 638q0 -286 -157 -474.5t-388 -188.5q-168 0 -268 105l-74 -80h-111l134 143
q-66 101 -66 243t41 263t113.5 210t173 139.5t217.5 50.5q161 0 268 -103l74 78h110l-133 -141q66 -105 66 -245z" />
    <glyph glyph-name="ugrave" unicode="&#xf9;" horiz-adv-x="1105" 
d="M129 250q0 54 10 110l125 664h101l-125 -664q-9 -52 -9 -88q-1 -98 59 -155t148 -57q167 -1 336 163l152 801h98l-190 -1024h-101l21 113q-160 -137 -330 -138q-122 0 -209 81q-86 81 -86 194zM494 1473h110l146 -287h-88z" />
    <glyph glyph-name="uacute" unicode="&#xfa;" horiz-adv-x="1105" 
d="M129 250q0 54 10 110l125 664h101l-125 -664q-9 -52 -9 -88q-1 -98 59 -155t148 -57q167 -1 336 163l152 801h98l-190 -1024h-101l21 113q-160 -137 -330 -138q-122 0 -209 81q-86 81 -86 194zM854 1473h127l-281 -287h-102z" />
    <glyph glyph-name="ucircumflex" unicode="&#xfb;" horiz-adv-x="1105" 
d="M129 250q0 54 10 110l125 664h101l-125 -664q-9 -52 -9 -88q-1 -98 59 -155t148 -57q167 -1 336 163l152 801h98l-190 -1024h-101l21 113q-160 -137 -330 -138q-122 0 -209 81q-86 81 -86 194zM686 1473h80l143 -287h-84l-112 192l-185 -192h-100z" />
    <glyph glyph-name="udieresis" unicode="&#xfc;" horiz-adv-x="1105" 
d="M129 250q0 54 10 110l125 664h101l-125 -664q-9 -52 -9 -88q-1 -98 59 -155t148 -57q167 -1 336 163l152 801h98l-190 -1024h-101l21 113q-160 -137 -330 -138q-122 0 -209 81q-86 81 -86 194zM894 1257q-66 0 -67 67q0 32 23 54q22 22 54 23t49 -17t17 -50t-22 -54
t-54 -23zM506 1401q66 0 65 -67q-1 -32 -23 -54t-54 -23t-50 17t-18 50t24 54t56 23z" />
    <glyph glyph-name="yacute" unicode="&#xfd;" horiz-adv-x="960" 
d="M160 -449h-105l279 478l-199 995h101l165 -881l492 881h108zM778 1473h127l-280 -287h-103z" />
    <glyph glyph-name="thorn" unicode="&#xfe;" horiz-adv-x="1105" 
d="M913 650q0 140 -73.5 227.5t-212.5 87.5t-293 -148l-119 -633q131 -125 274 -125q183 0 303.5 164t120.5 427zM356 930q137 119 296 119t262.5 -109t103.5 -273q0 -314 -149.5 -503t-379.5 -189q-153 0 -290 121l-103 -545h-100l360 1922h101z" />
    <glyph glyph-name="ydieresis" unicode="&#xff;" horiz-adv-x="960" 
d="M160 -449h-105l279 478l-199 995h101l165 -881l492 881h108zM818 1257q-66 0 -66 67q0 32 22 54t54 23q66 0 67 -67q0 -32 -23 -54q-22 -22 -54 -23zM350 1324q0 32 24 54t56 23t48 -17q18 -18 18 -50t-23 -54t-55 -23t-50 17t-18 50z" />
    <glyph glyph-name="dotlessi" unicode="&#x131;" horiz-adv-x="452" 
d="M272 1024h101l-193 -1024h-100z" />
    <glyph glyph-name="OE" unicode="&#x152;" horiz-adv-x="1906" 
d="M922 1325q-307 0 -492.5 -212.5t-185.5 -567.5q0 -217 130 -339t363 -122h199l233 1241h-247zM713 0q-254 0 -416 146.5t-162 366.5q0 423 213.5 659.5t581.5 236.5h1016l-17 -84h-655l-107 -567h576l-14 -84h-576l-113 -590h672l-14 -84h-985z" />
    <glyph glyph-name="oe" unicode="&#x153;" horiz-adv-x="1818" 
d="M193 380q0 -138 77.5 -229.5t210.5 -91.5q181 0 306.5 165t125.5 401q0 158 -77.5 249t-210.5 91q-181 0 -306.5 -165.5t-125.5 -419.5zM1649 680q0 127 -64.5 206t-171.5 79q-141 0 -245.5 -102.5t-145.5 -284.5h618q9 65 9 102zM1749 680q0 -88 -18 -184h-723
q-30 -216 69.5 -326.5t246.5 -110.5t294 101l-21 -113q-143 -72 -291 -72t-248 75t-138 198q-74 -127 -190 -200t-272 -73t-263 114.5t-107 276.5t41 283t113.5 210t173 139.5t220.5 50.5t219 -67t138 -189q68 123 180.5 189.5t252.5 66.5t231.5 -99.5t91.5 -269.5z" />
    <glyph glyph-name="Scaron" unicode="&#x160;" horiz-adv-x="1073" 
d="M227 1041q0 93 34 163q70 144 237 201q84 29 177 29q182 0 374 -109l-21 -104q-180 125 -341 125t-259 -80t-96 -205q0 -84 44 -138q73 -89 252 -177q179 -87 254 -202q44 -69 44 -164t-34 -168q-68 -146 -242 -207q-85 -30 -185 -30q-193 0 -402 125l21 109
q199 -146 366 -146t271 84q102 85 100 213q0 86 -44 142q-43 56 -109 101q-66 44 -144 81t-144 85t-109 114q-44 66 -44 158zM772 1571h-80l-143 287h84l112 -191l185 191h98z" />
    <glyph glyph-name="scaron" unicode="&#x161;" horiz-adv-x="833" 
d="M325 59q123 1 191 57t68 152t-111 166q-47 31 -103 58q-129 62 -183 145q-31 49 -31 117t26 122q51 108 177 151q63 22 133 22q142 0 280 -80l-16 -97q-136 92 -250 92t-182 -54t-68 -142q0 -57 42 -107t171 -113q215 -106 215 -271q0 -131 -96 -216q-96 -86 -246 -86
t-305 93l18 100q148 -109 270 -109zM580 1186h-80l-144 287h84l113 -191l184 191h99z" />
    <glyph glyph-name="Ydieresis" unicode="&#x178;" 
d="M532 621l-344 788h113l295 -696l557 696h129l-645 -797l-117 -612h-104zM982 1642q-66 0 -67 67q0 33 23 55q22 22 54 22t49 -18t17 -49q0 -33 -22 -55t-54 -22zM594 1786q66 0 65 -67q-1 -33 -23 -55t-54 -22t-50 18t-18 49q0 33 24 55t56 22z" />
    <glyph glyph-name="Zcaron" unicode="&#x17d;" horiz-adv-x="1224" 
d="M12 84l1121 1241h-844l16 84h969l-17 -84l-1122 -1241h897l-14 -84h-1022zM848 1571h-80l-143 287h84l112 -191l185 191h98z" />
    <glyph glyph-name="zcaron" unicode="&#x17e;" horiz-adv-x="944" 
d="M6 76l787 868h-592l16 80h713l-17 -76l-784 -868h631l-15 -80h-753zM637 1186h-80l-143 287h84l112 -191l185 191h98z" />
    <glyph glyph-name="florin" unicode="&#x192;" 
d="M215 -193q76 0 127 45.5t66 122.5l153 826h-235l14 80h238l57 313q20 109 95.5 174.5t179.5 65.5t198 -52l-16 -90q-89 54 -163 54q-75 0 -126 -45.5t-68 -122.5l-55 -297h301l-14 -80h-301l-158 -842q-20 -109 -96 -174.5t-180 -65.5t-197 54l16 88q88 -54 164 -54z" />
    <glyph glyph-name="circumflex" unicode="&#x2c6;" horiz-adv-x="512" 
d="M393 1473h80l143 -287h-84l-112 192l-184 -192h-101z" />
    <glyph glyph-name="caron" unicode="&#x2c7;" horiz-adv-x="512" 
d="M420 1186h-80l-143 287h84l112 -191l185 191h98z" />
    <glyph glyph-name="ring" unicode="&#x2da;" horiz-adv-x="512" 
d="M297 1323q0 -49 27.5 -77.5t76.5 -28.5t84 34.5t35 83.5t-27.5 78t-76.5 29t-84 -35t-35 -84zM223 1318q0 79 58.5 137t138.5 58t126 -47.5t46 -125.5t-57.5 -136.5t-137.5 -58.5t-127 47t-47 126z" />
    <glyph glyph-name="tilde" unicode="&#x2dc;" horiz-adv-x="512" 
d="M528 1313q30 0 59 25.5t38 70.5h80q-14 -78 -63.5 -129t-113.5 -51t-111.5 40t-73 58.5t-55.5 18.5t-58.5 -26t-36.5 -71h-80q16 78 64 129.5t112 51.5t112 -40t72.5 -58.5t54.5 -18.5z" />
    <glyph glyph-name="endash" unicode="&#x2013;" horiz-adv-x="1024" 
d="M88 561h864l-16 -80h-864z" />
    <glyph glyph-name="emdash" unicode="&#x2014;" horiz-adv-x="2048" 
d="M88 561h1888l-16 -80h-1888z" />
    <glyph glyph-name="quoteleft" unicode="&#x2018;" horiz-adv-x="512" 
d="M336 1024h-113l234 385h96z" />
    <glyph glyph-name="quoteright" unicode="&#x2019;" horiz-adv-x="512" 
d="M440 1409h113l-234 -385h-96z" />
    <glyph glyph-name="quotesinglbase" unicode="&#x201a;" horiz-adv-x="512" 
d="M143 129h113l-231 -385h-97z" />
    <glyph glyph-name="quotedblleft" unicode="&#x201c;" horiz-adv-x="833" 
d="M336 1024h-113l234 385h96zM657 1024h-112l231 385h96z" />
    <glyph glyph-name="quotedblright" unicode="&#x201d;" horiz-adv-x="833" 
d="M760 1409h112l-231 -385h-96zM440 1409h113l-234 -385h-96z" />
    <glyph glyph-name="quotedblbase" unicode="&#x201e;" horiz-adv-x="833" 
d="M143 129h113l-231 -385h-97zM465 129h113l-234 -385h-96z" />
    <glyph glyph-name="dagger" unicode="&#x2020;" horiz-adv-x="897" 
d="M492 981h-340l16 88h340l63 340h88l-63 -340h340l-16 -88h-340l-183 -981h-88z" />
    <glyph glyph-name="daggerdbl" unicode="&#x2021;" horiz-adv-x="897" 
d="M371 340h-340l16 88h342l103 553h-340l16 88h340l63 340h88l-63 -340h340l-16 -88h-340l-103 -553h340l-16 -88h-342l-62 -340h-88z" />
    <glyph glyph-name="bullet" unicode="&#x2022;" horiz-adv-x="1024" 
d="M260 704.5q0 59.5 22.5 112.5t62.5 92t92 61.5t111.5 22.5t113 -22.5t92.5 -61.5t61.5 -92t22.5 -112.5t-22.5 -112.5t-61.5 -92t-92.5 -61.5t-113 -22.5t-111.5 22.5t-92 61.5t-62.5 92t-22.5 112.5z" />
    <glyph glyph-name="ellipsis" unicode="&#x2026;" horiz-adv-x="2050" 
d="M180 51q0 35 25.5 59.5t60.5 24.5t55.5 -19.5t20.5 -55.5t-24.5 -60.5t-60.5 -24.5t-56.5 20.5t-20.5 55.5zM949 135q75 0 75 -75q0 -36 -24.5 -60.5t-59.5 -24.5t-55.5 20.5t-20.5 55.5t24.5 59.5t60.5 24.5zM1633 135q75 0 75 -75q0 -36 -24.5 -60.5t-59.5 -24.5
t-55.5 20.5t-20.5 55.5t24.5 59.5t60.5 24.5z" />
    <glyph glyph-name="perthousand" unicode="&#x2030;" horiz-adv-x="2465" 
d="M1776 262q0 -90 53 -150.5t125 -60.5q134 0 218.5 112t84.5 269q0 100 -53.5 160.5t-125.5 60.5t-126 -29.5t-92.5 -80.5t-61 -121t-22.5 -160zM1683 278q0 80 30 166t113 185.5t247 99.5q118 0 197 -83t79 -192q0 -210 -113 -344.5t-276 -134.5q-119 0 -198 83t-79 220z
M1503 1409h109l-1313 -1409h-111zM283 968q0 -89 51.5 -149.5t125.5 -60.5q134 0 218 110.5t84 268.5q0 100 -52 160.5t-126 60.5t-126 -30t-91 -81t-61.5 -120.5t-22.5 -158.5zM190 984q0 80 30 165.5t113 185t247 99.5q118 0 196 -82t78 -192q0 -211 -113 -345.5
t-274 -134.5q-119 0 -198 83.5t-79 220.5zM1038 262q0 -90 54 -150.5t126 -60.5q134 0 218 112t84 269q0 100 -54 160.5t-126 60.5t-125.5 -29.5t-92.5 -80.5t-61.5 -121t-22.5 -160zM946 278q0 80 30 166t113 185.5t246 99.5q119 0 198 -83t79 -192q0 -208 -113 -343.5
t-276 -135.5q-119 0 -198 83t-79 220z" />
    <glyph glyph-name="guilsinglleft" unicode="&#x2039;" horiz-adv-x="737" 
d="M256 508l289 -412h-105l-327 420l471 414h121z" />
    <glyph glyph-name="guilsinglright" unicode="&#x203a;" horiz-adv-x="737" 
d="M481 516l-288 414h104l328 -422l-473 -412h-119z" />
    <glyph glyph-name="Euro" unicode="&#x20ac;" 
d="M901 1434q162 0 311 -97l-16 -96q-139 105 -301 105t-301 -122t-211 -327h489l-14 -80h-500q-24 -106 -32 -225h489l-14 -80h-477q4 -205 102 -327t252 -122q153 0 311 93l-20 -109q-139 -72 -264 -72q-229 0 -358.5 149.5t-129.5 387.5h-184l14 80h172q9 135 33 225
h-162l14 80h170q79 241 248 389t379 148z" />
    <glyph glyph-name="trademark" unicode="&#x2122;" horiz-adv-x="1763" 
d="M958 1409h84l297 -422l297 422h84v-831h-92v673l-258 -368h-61l-258 368v-673h-93v831zM410 1331h-273v78h641v-78h-272v-753h-96v753z" />
    <glyph glyph-name="uniE800" unicode="&#xe800;" horiz-adv-x="512" 
d="M201 1858h110l146 -287h-88z" />
    <glyph glyph-name="uniE801" unicode="&#xe801;" horiz-adv-x="512" 
d="M561 1858h127l-280 -287h-103z" />
    <glyph glyph-name="uniE802" unicode="&#xe802;" horiz-adv-x="512" 
d="M393 1858h80l143 -287h-84l-112 192l-184 -192h-101z" />
    <glyph glyph-name="uniE803" unicode="&#xe803;" horiz-adv-x="512" 
d="M420 1571h-80l-143 287h84l112 -191l185 191h98z" />
    <glyph glyph-name="uniE804" unicode="&#xe804;" horiz-adv-x="512" 
d="M528 1698q30 0 59 25.5t38 70.5h80q-14 -78 -63.5 -129t-113.5 -51t-111.5 40t-73 58.5t-55.5 18.5t-58.5 -26t-36.5 -71h-80q16 78 64 129.5t112 51.5t112 -40t72.5 -58.5t54.5 -18.5z" />
    <glyph glyph-name="uniE805" unicode="&#xe805;" horiz-adv-x="512" 
d="M601 1642q-66 0 -66 67q0 32 22.5 54.5t54.5 22.5q66 0 66 -67q0 -32 -22.5 -54.5t-54.5 -22.5zM212 1786q67 0 67 -67q0 -32 -22.5 -54.5t-54.5 -22.5t-50.5 17.5t-18.5 49.5t23.5 54.5t55.5 22.5z" />
    <glyph glyph-name="uniE808" unicode="&#xe808;" horiz-adv-x="512" 
d="M297 1708q0 -49 27.5 -77.5t76.5 -28.5t84 34.5t35 83.5t-27.5 78t-76.5 29t-84 -35t-35 -84zM223 1703q0 79 58.5 137t138.5 58t126 -47t46 -125t-57.5 -137t-137.5 -59t-127 47t-47 126z" />
    </font>
</defs>
</svg>
